<svg width="98" height="80" viewBox="0 0 98 80" fill="none" xmlns="http://www.w3.org/2000/svg">
<path fill-rule="evenodd" clip-rule="evenodd" d="M0 3C0 1.34315 1.34315 0 3 0H95C96.6569 0 98 1.34315 98 3V11.5789H0V3ZM0 12.5789H98V77C98 78.6569 96.6569 80 95 80H3C1.34314 80 0 78.6569 0 77V12.5789ZM16.1445 7.94603C17.2491 7.94603 18.1445 7.0506 18.1445 5.94603C18.1445 4.84146 17.2491 3.94603 16.1445 3.94603C15.04 3.94603 14.1445 4.84146 14.1445 5.94603C14.1445 7.0506 15.04 7.94603 16.1445 7.94603ZM6.34766 7.94676C7.45223 7.94676 8.34766 7.05133 8.34766 5.94676C8.34766 4.8422 7.45223 3.94676 6.34766 3.94676C5.24309 3.94676 4.34766 4.8422 4.34766 5.94676C4.34766 7.05133 5.24309 7.94676 6.34766 7.94676ZM27.9453 5.94603C27.9453 7.0506 27.0499 7.94603 25.9453 7.94603C24.8407 7.94603 23.9453 7.0506 23.9453 5.94603C23.9453 4.84146 24.8407 3.94603 25.9453 3.94603C27.0499 3.94603 27.9453 4.84146 27.9453 5.94603Z" fill="url(#paint0_linear_1_237)"/>
<path d="M50 57L52.5981 61.5H47.4019L50 57Z" fill="#F99417"/>
<path d="M82 57L84.5981 61.5H79.4019L82 57Z" fill="#F99417"/>
<line x1="16.5" y1="21.5" x2="26.5" y2="21.5" stroke="white" stroke-linecap="round"/>
<rect x="8" y="19" width="5" height="5" rx="1" fill="white"/>
<line x1="47.5" y1="21.5" x2="57.5" y2="21.5" stroke="white" stroke-linecap="round"/>
<line x1="44.5" y1="64.5" x2="54.5" y2="64.5" stroke="white" stroke-linecap="round"/>
<line x1="76.5" y1="64.5" x2="86.5" y2="64.5" stroke="white" stroke-linecap="round"/>
<rect x="39" y="19" width="5" height="5" rx="1" fill="white"/>
<line x1="77.5" y1="21.5" x2="87.5" y2="21.5" stroke="white" stroke-linecap="round"/>
<rect x="69" y="19" width="5" height="5" rx="1" fill="white"/>
<path d="M7 42L21.446 29.884C22.0808 29.3516 22.9782 29.2657 23.7025 29.6681L35.1125 36.0069C35.6703 36.3168 36.3425 36.3419 36.9219 36.0745L48.0267 30.9492C48.6346 30.6686 49.3427 30.7109 49.913 31.0618L60.6094 37.6443C61.4188 38.1423 62.4668 38.0021 63.1167 37.3088L68.1957 31.8912C68.9259 31.1124 70.139 31.0444 70.9517 31.7366L82.0706 41.2083C82.6412 41.6944 83.4358 41.8205 84.129 41.5351L91.5 38.5" stroke="white" stroke-linecap="round"/>
<path d="M7 47L21.446 34.884C22.0808 34.3516 22.9782 34.2657 23.7025 34.6681L35.1125 41.0069C35.6703 41.3168 36.3425 41.3419 36.9219 41.0745L48.0267 35.9492C48.6346 35.6686 49.3427 35.7109 49.913 36.0618L60.6094 42.6443C61.4188 43.1423 62.4668 43.0021 63.1167 42.3088L68.1957 36.8912C68.9259 36.1124 70.139 36.0444 70.9517 36.7366L82.0706 46.2083C82.6412 46.6944 83.4358 46.8205 84.129 46.5351L91.5 43.5" stroke="#F99417" stroke-linecap="round"/>
<path d="M39 61.8571C39 55.8609 43.9249 51 50 51C56.0751 51 61 55.8609 61 61.8571" stroke="white" stroke-width="2"/>
<path d="M70 61.8571C70 55.8609 74.9249 51 81 51C87.0751 51 92 55.8609 92 61.8571" stroke="white" stroke-width="2"/>
<rect x="8" y="59.5" width="2" height="5.1" rx="1" fill="white"/>
<rect x="13.9995" y="59.5" width="2" height="5.1" rx="1" fill="white"/>
<rect x="19.9991" y="54.3999" width="2" height="10.2" rx="1" fill="white"/>
<rect x="26.0009" y="51" width="2" height="13.6" rx="1" fill="white"/>
<defs>
<linearGradient id="paint0_linear_1_237" x1="-0.00195436" y1="72.2107" x2="50.0616" y2="-3.96424" gradientUnits="userSpaceOnUse">
<stop stop-color="#717186" stop-opacity="0.19"/>
<stop offset="1" stop-color="#101017"/>
</linearGradient>
</defs>
</svg>
