<svg width="89" height="100" viewBox="0 0 89 100" fill="none" xmlns="http://www.w3.org/2000/svg">
<g clip-path="url(#clip0_910_2210)">
<path d="M88.1895 0L80.1895 90L44.0195 100L8.01947 90L0.0194702 0H88.1895Z" fill="#F99417"/>
<path d="M73.2795 84.2601L80.1495 7.36011H44.1495V92.3601L73.2795 84.2601Z" fill="#F99417"/>
<path d="M18.4195 40.74L19.4195 51.74H44.1195V40.74H18.4195Z" fill="#F5F5F5"/>
<path d="M44.1095 18.3999H16.4295L17.4295 29.3999H44.1095V18.3999Z" fill="#F5F5F5"/>
<path d="M44.1095 80.89V69.4101H44.0195L31.7695 66.1L31.0195 57.3H19.8995L21.4395 74.63L44.0195 80.9101L44.1095 80.89Z" fill="#F5F5F5"/>
<path d="M57.6595 51.7801L56.3795 66.0901L44.0695 69.4201V80.9001L66.6995 74.6301L66.8695 72.7701L69.4595 43.7001L69.7295 40.7001L71.7295 18.3601H44.0695V29.3601H59.6195L58.6195 40.6601H44.0695V51.6601L57.6595 51.7801Z" fill="#F5F5F5"/>
</g>
<defs>
<clipPath id="clip0_910_2210">
<rect width="88.17" height="100" fill="white" transform="translate(0.0194702)"/>
</clipPath>
</defs>
</svg>
