<svg width="101" height="98" viewBox="0 0 101 98" fill="none" xmlns="http://www.w3.org/2000/svg">
<g clip-path="url(#clip0_910_2859)">
<path d="M50.2761 0.423117C38.3953 0.412125 26.8988 4.63209 17.8465 12.3269C8.79425 20.0217 2.77779 30.6885 0.875157 42.4159C-1.02747 54.1434 1.30807 66.1652 7.4633 76.3272C13.6185 86.4892 23.1912 94.1274 34.4661 97.8731C36.9661 98.3331 37.8861 96.7831 37.8861 95.4631C37.8861 94.1431 37.8861 90.3331 37.8161 86.1531C23.9061 89.1531 20.9761 80.2531 20.9761 80.2531C18.6961 74.4731 15.4161 72.9431 15.4161 72.9431C10.8861 69.8331 15.7661 69.9431 15.7661 69.9431C20.7661 70.2931 23.4261 75.0931 23.4261 75.0931C27.8861 82.7331 35.1261 80.5231 37.9761 79.2531C38.2015 76.7145 39.3298 74.3408 41.1561 72.5631C30.0461 71.2531 18.3761 66.9731 18.3761 47.8131C18.3126 42.8546 20.1563 38.0611 23.5261 34.4231C23.0061 33.1631 21.2961 28.0731 24.0061 21.1931C24.0061 21.1931 28.2061 19.8431 37.7661 26.3131C45.9499 24.0803 54.5823 24.0803 62.7661 26.3131C72.3061 19.8431 76.4961 21.1931 76.4961 21.1931C79.2161 28.0731 77.4961 33.1931 76.9861 34.4231C80.3749 38.0522 82.2339 42.8482 82.1761 47.8131C82.1761 67.0131 70.4761 71.2431 59.3461 72.4831C61.1361 74.0331 62.7361 77.0731 62.7361 81.7431C62.7361 88.4331 62.6761 93.8131 62.6761 95.4631C62.6761 96.7931 63.5761 98.3531 66.1161 97.8631C77.386 94.1111 86.9521 86.4695 93.1011 76.3069C99.2501 66.1443 101.58 54.1245 99.6745 42.4003C97.7686 30.6762 91.751 20.0134 82.6996 12.3218C73.6482 4.63019 62.1542 0.412144 50.2761 0.423117Z" fill="#F99417"/>
<path d="M19.0061 71.6531C18.9084 71.7823 18.7653 71.8697 18.6057 71.8975C18.4461 71.9253 18.2818 71.8916 18.1461 71.8031C17.7861 71.6431 17.5761 71.3031 17.6961 71.0531C17.8161 70.8031 18.1961 70.7231 18.5561 70.8931C18.9161 71.0631 19.1261 71.4031 19.0061 71.6531ZM21.4661 73.8431C21.2261 74.0631 20.7561 73.9631 20.4661 73.6131C20.3262 73.4913 20.2351 73.323 20.2093 73.1393C20.1836 72.9555 20.2251 72.7687 20.3261 72.6131C20.5661 72.3931 21.0261 72.4931 21.3261 72.8431C21.6261 73.1931 21.7261 73.6631 21.4761 73.8431H21.4661ZM23.1461 76.6531C22.8461 76.8631 22.3461 76.6531 22.0361 76.2231C21.7261 75.7931 21.7261 75.2231 22.0361 75.0331C22.3461 74.8431 22.8461 75.0331 23.1561 75.4531C23.4661 75.8731 23.4661 76.4531 23.1561 76.6531H23.1461ZM26.0061 79.9031C25.7956 80.0077 25.5581 80.0453 25.3255 80.0108C25.093 79.9763 24.8766 79.8713 24.7055 79.7101C24.5345 79.5488 24.4169 79.339 24.3688 79.1089C24.3206 78.8788 24.3441 78.6394 24.4361 78.4231C24.6383 78.2952 24.8797 78.2441 25.1164 78.2789C25.353 78.3138 25.5694 78.4324 25.7261 78.6131C26.1661 79.0231 26.2961 79.6131 26.0061 79.8931V79.9031ZM29.6861 81.0031C29.5661 81.3931 29.0061 81.5731 28.4461 81.4031C27.8861 81.2331 27.5061 80.7731 27.6161 80.4031C27.7261 80.0331 28.3061 79.8231 28.8761 79.9931C29.4461 80.1631 29.8061 80.6231 29.6861 80.9931V81.0031ZM33.8861 81.4631C33.8861 81.8831 33.4261 82.2231 32.8261 82.2331C32.2261 82.2431 31.7461 81.9131 31.7361 81.5031C31.7261 81.0931 32.2061 80.7431 32.8061 80.7331C33.4061 80.7231 33.8861 81.0531 33.8861 81.4631ZM38.0061 81.3131C38.0861 81.7131 37.6661 82.1231 37.0761 82.2331C36.4861 82.3431 35.9661 82.0931 35.8861 81.6931C35.8061 81.2931 36.2361 80.8731 36.8161 80.7631C37.3961 80.6531 37.9361 80.9031 38.0061 81.3131Z" fill="#F99417"/>
</g>
<defs>
<clipPath id="clip0_910_2859">
<rect width="100" height="97.53" fill="white" transform="translate(0.276123 0.423096)"/>
</clipPath>
</defs>
</svg>
