<svg width="98" height="108" viewBox="0 0 98 108" fill="none" xmlns="http://www.w3.org/2000/svg">
<g clip-path="url(#clip0_910_2195)" filter="url(#filter0_d_910_2195)">
<path d="M12.905 90L4.90503 0H93.095L85.095 90L48.905 100" fill="#F99417"/>
<path d="M48.995 92.3399V7.38989H85.045L78.165 84.1999" fill="#F99417"/>
<path d="M21.285 18.3999H48.995V29.3999H33.395L34.395 40.6999H48.995V51.6999H24.305L21.285 18.3999ZM24.785 57.2899H35.905L36.685 66.1199L49.025 69.4199V80.9399L26.345 74.6199" fill="#F5F5F5"/>
<path d="M76.615 18.3999H48.905V29.3999H75.585L76.615 18.3999ZM74.615 40.7399H48.905V51.7399H62.565L61.275 66.1199L48.905 69.4199V80.8899L71.515 74.6199" fill="#F5F5F5"/>
</g>
<defs>
<filter id="filter0_d_910_2195" x="0.905029" y="0" width="96.1899" height="108" filterUnits="userSpaceOnUse" color-interpolation-filters="sRGB">
<feFlood flood-opacity="0" result="BackgroundImageFix"/>
<feColorMatrix in="SourceAlpha" type="matrix" values="0 0 0 0 0 0 0 0 0 0 0 0 0 0 0 0 0 0 127 0" result="hardAlpha"/>
<feOffset dy="4"/>
<feGaussianBlur stdDeviation="2"/>
<feComposite in2="hardAlpha" operator="out"/>
<feColorMatrix type="matrix" values="0 0 0 0 0 0 0 0 0 0 0 0 0 0 0 0 0 0 0.25 0"/>
<feBlend mode="normal" in2="BackgroundImageFix" result="effect1_dropShadow_910_2195"/>
<feBlend mode="normal" in="SourceGraphic" in2="effect1_dropShadow_910_2195" result="shape"/>
</filter>
<clipPath id="clip0_910_2195">
<rect width="88.19" height="100" fill="white" transform="translate(4.90503)"/>
</clipPath>
</defs>
</svg>
