<svg width="72" height="80" viewBox="0 0 72 80" fill="none" xmlns="http://www.w3.org/2000/svg">
<path fill-rule="evenodd" clip-rule="evenodd" d="M0 3C0 1.34315 1.34315 0 3 0H69C70.6569 0 72 1.34315 72 3V9.55347H0V3ZM0 10.5535H72V77C72 78.6569 70.6569 80 69 80H3C1.34315 80 0 78.6569 0 77V10.5535ZM17.1445 6.99674C18.2491 6.99674 19.1445 6.08997 19.1445 4.97142C19.1445 3.85287 18.2491 2.9461 17.1445 2.9461C16.04 2.9461 15.1445 3.85287 15.1445 4.97142C15.1445 6.08997 16.04 6.99674 17.1445 6.99674ZM7.34766 6.99747C8.45223 6.99747 9.34766 6.0907 9.34766 4.97215C9.34766 3.8536 8.45223 2.94684 7.34766 2.94684C6.24309 2.94684 5.34766 3.8536 5.34766 4.97215C5.34766 6.0907 6.24309 6.99747 7.34766 6.99747ZM28.9453 4.97142C28.9453 6.08997 28.0499 6.99674 26.9453 6.99674C25.8407 6.99674 24.9453 6.08997 24.9453 4.97142C24.9453 3.85287 25.8407 2.9461 26.9453 2.9461C28.0499 2.9461 28.9453 3.85287 28.9453 4.97142ZM42.6603 19L57.3827 40H35.3205H27.9378H18L26.6603 28L31.5757 34.811L42.6603 19ZM31.1603 26C32.541 26 33.6603 24.8807 33.6603 23.5C33.6603 22.1193 32.541 21 31.1603 21C29.7795 21 28.6603 22.1193 28.6603 23.5C28.6603 24.8807 29.7795 26 31.1603 26ZM23.5 44C23.2239 44 23 44.2239 23 44.5C23 44.7761 23.2239 45 23.5 45H52.5C52.7761 45 53 44.7761 53 44.5C53 44.2239 52.7761 44 52.5 44H23.5ZM33 49.5C33 49.2239 33.2239 49 33.5 49H43.5C43.7761 49 44 49.2239 44 49.5C44 49.7761 43.7761 50 43.5 50H33.5C33.2239 50 33 49.7761 33 49.5ZM33.5 59C33.2239 59 33 59.2239 33 59.5C33 59.7761 33.2239 60 33.5 60H43.5C43.7761 60 44 59.7761 44 59.5C44 59.2239 43.7761 59 43.5 59H33.5ZM33 63.5C33 63.2239 33.2239 63 33.5 63H62.5C62.7761 63 63 63.2239 63 63.5C63 63.7761 62.7761 64 62.5 64H33.5C33.2239 64 33 63.7761 33 63.5ZM33.5 67C33.2239 67 33 67.2239 33 67.5C33 67.7761 33.2239 68 33.5 68H62.5C62.7761 68 63 67.7761 63 67.5C63 67.2239 62.7761 67 62.5 67H33.5Z" fill="url(#paint0_linear_1_438)"/>
<circle cx="19.5" cy="63.5" r="7.5" fill="#F5F5F5"/>
<defs>
<linearGradient id="paint0_linear_1_438" x1="38.295" y1="-14.5253" x2="-16.2592" y2="35.8846" gradientUnits="userSpaceOnUse">
<stop stop-color="#9898AE" stop-opacity="0.943428"/>
<stop offset="1" stop-color="#232330"/>
</linearGradient>
</defs>
</svg>
