<svg width="72" height="80" viewBox="0 0 72 80" fill="none" xmlns="http://www.w3.org/2000/svg">
<path fill-rule="evenodd" clip-rule="evenodd" d="M3 0C1.34315 0 0 1.34315 0 3V9.55347H72V3C72 1.34315 70.6569 0 69 0H3ZM72 10.5535H0V77C0 78.6569 1.34315 80 3 80H69C70.6569 80 72 78.6569 72 77V10.5535ZM19.1445 4.97142C19.1445 6.08997 18.2491 6.99674 17.1445 6.99674C16.04 6.99674 15.1445 6.08997 15.1445 4.97142C15.1445 3.85287 16.04 2.9461 17.1445 2.9461C18.2491 2.9461 19.1445 3.85287 19.1445 4.97142ZM9.34766 4.97215C9.34766 6.0907 8.45223 6.99747 7.34766 6.99747C6.24309 6.99747 5.34766 6.0907 5.34766 4.97215C5.34766 3.8536 6.24309 2.94684 7.34766 2.94684C8.45223 2.94684 9.34766 3.8536 9.34766 4.97215ZM26.9453 6.99674C28.0499 6.99674 28.9453 6.08997 28.9453 4.97142C28.9453 3.85287 28.0499 2.9461 26.9453 2.9461C25.8407 2.9461 24.9453 3.85287 24.9453 4.97142C24.9453 6.08997 25.8407 6.99674 26.9453 6.99674ZM57.3827 40L42.6603 19L31.5757 34.811L26.6603 28L18 40H27.9378H35.3205H57.3827ZM33.6603 23.5C33.6603 24.8807 32.541 26 31.1603 26C29.7795 26 28.6603 24.8807 28.6603 23.5C28.6603 22.1193 29.7795 21 31.1603 21C32.541 21 33.6603 22.1193 33.6603 23.5ZM23 44.5C23 44.2239 23.2239 44 23.5 44H52.5C52.7761 44 53 44.2239 53 44.5C53 44.7761 52.7761 45 52.5 45H23.5C23.2239 45 23 44.7761 23 44.5ZM33.5 49C33.2239 49 33 49.2239 33 49.5C33 49.7761 33.2239 50 33.5 50H43.5C43.7761 50 44 49.7761 44 49.5C44 49.2239 43.7761 49 43.5 49H33.5Z" fill="url(#paint0_linear_1_160)"/>
<circle cx="19.5" cy="63.5" r="7.5" fill="#F99417"/>
<line x1="33.5" y1="59.5" x2="43.5" y2="59.5" stroke="white" stroke-linecap="round"/>
<line x1="33.5" y1="63.5" x2="62.5" y2="63.5" stroke="white" stroke-linecap="round"/>
<line x1="33.5" y1="67.5" x2="62.5" y2="67.5" stroke="white" stroke-linecap="round"/>
<defs>
<linearGradient id="paint0_linear_1_160" x1="-0.00195436" y1="72.2107" x2="50.0616" y2="-3.96424" gradientUnits="userSpaceOnUse">
<stop stop-color="#717186" stop-opacity="0.19"/>
<stop offset="1" stop-color="#101017"/>
</linearGradient>
</defs>
</svg>
