<svg width="32" height="32" viewBox="0 0 32 32" fill="none" xmlns="http://www.w3.org/2000/svg">
<path fill-rule="evenodd" clip-rule="evenodd" d="M5 21C5 21 6.65685 21 7.82843 22.1716C7.82843 22.1716 9 23.3431 9 25C9 25 9 26.6569 7.82843 27.8284C7.82843 27.8284 6.65685 29 5 29C5 29 3.34315 29 2.17157 27.8284C2.17157 27.8284 1 26.6569 1 25C1 25 1 23.3431 2.17157 22.1716C2.17157 22.1716 3.34315 21 5 21ZM5 23C5 23 4.17157 23 3.58579 23.5858C3.58579 23.5858 3 24.1716 3 25C3 25 3 25.8284 3.58579 26.4142C3.58579 26.4142 4.17157 27 5 27C5 27 5.82843 27 6.41421 26.4142C6.41421 26.4142 7 25.8284 7 25C7 25 7 24.1716 6.41421 23.5858C6.41421 23.5858 5.82843 23 5 23Z" fill="#1C1C1C"/>
<path fill-rule="evenodd" clip-rule="evenodd" d="M12 8C12 8 13.6569 8 14.8284 9.17157C14.8284 9.17157 16 10.3431 16 12C16 12 16 13.6569 14.8284 14.8284C14.8284 14.8284 13.6569 16 12 16C12 16 10.3431 16 9.17157 14.8284C9.17157 14.8284 8 13.6569 8 12C8 12 8 10.3431 9.17157 9.17157C9.17157 9.17157 10.3431 8 12 8ZM12 10C12 10 11.1716 10 10.5858 10.5858C10.5858 10.5858 10 11.1716 10 12C10 12 10 12.8284 10.5858 13.4142C10.5858 13.4142 11.1716 14 12 14C12 14 12.8284 14 13.4142 13.4142C13.4142 13.4142 14 12.8284 14 12C14 12 14 11.1716 13.4142 10.5858C13.4142 10.5858 12.8284 10 12 10Z" fill="#1C1C1C"/>
<path fill-rule="evenodd" clip-rule="evenodd" d="M20 16C20 16 21.6569 16 22.8284 17.1716C22.8284 17.1716 24 18.3431 24 20C24 20 24 21.6569 22.8284 22.8284C22.8284 22.8284 21.6569 24 20 24C20 24 18.3431 24 17.1716 22.8284C17.1716 22.8284 16 21.6569 16 20C16 20 16 18.3431 17.1716 17.1716C17.1716 17.1716 18.3431 16 20 16ZM20 18C20 18 19.1716 18 18.5858 18.5858C18.5858 18.5858 18 19.1716 18 20C18 20 18 20.8284 18.5858 21.4142C18.5858 21.4142 19.1716 22 20 22C20 22 20.8284 22 21.4142 21.4142C21.4142 21.4142 22 20.8284 22 20C22 20 22 19.1716 21.4142 18.5858C21.4142 18.5858 20.8284 18 20 18Z" fill="#1C1C1C"/>
<path fill-rule="evenodd" clip-rule="evenodd" d="M27 3C27 3 28.6569 3 29.8284 4.17157C29.8284 4.17157 31 5.34315 31 7C31 7 31 8.65685 29.8284 9.82843C29.8284 9.82843 28.6569 11 27 11C27 11 25.3431 11 24.1716 9.82843C24.1716 9.82843 23 8.65685 23 7C23 7 23 5.34315 24.1716 4.17157C24.1716 4.17157 25.3431 3 27 3ZM27 5C27 5 26.1716 5 25.5858 5.58579C25.5858 5.58579 25 6.17157 25 7C25 7 25 7.82843 25.5858 8.41421C25.5858 8.41421 26.1716 9 27 9C27 9 27.8284 9 28.4142 8.41421C28.4142 8.41421 29 7.82843 29 7C29 7 29 6.17157 28.4142 5.58579C28.4142 5.58579 27.8284 5 27 5Z" fill="#1C1C1C"/>
<path d="M5.54423 21.8889C5.46606 22.0344 5.42499 22.1973 5.42499 22.3624L5.42527 22.3863C5.42741 22.476 5.4416 22.5649 5.46744 22.6507C5.54389 22.9047 5.7181 23.1179 5.95174 23.2434C6.09723 23.3215 6.25983 23.3624 6.42499 23.3624C6.45367 23.3624 6.48235 23.3612 6.51093 23.3587C6.84722 23.3297 7.14618 23.133 7.30592 22.8357L11.4559 15.1107C11.5341 14.9652 11.575 14.8026 11.575 14.6375C11.575 14.6088 11.5738 14.5801 11.5713 14.5515C11.5423 14.2152 11.3456 13.9163 11.0482 13.7565C10.9027 13.6784 10.7401 13.6375 10.575 13.6375L10.5511 13.6377C10.4615 13.6399 10.3726 13.6541 10.2867 13.6799C10.0328 13.7564 9.81957 13.9306 9.69406 14.1642L5.54423 21.8889Z" fill="#1C1C1C"/>
<path d="M14.8321 13.4179C14.6446 13.2304 14.3902 13.125 14.125 13.125C13.8598 13.125 13.6054 13.2304 13.4179 13.4179C13.2304 13.6054 13.125 13.8598 13.125 14.125C13.125 14.3902 13.2304 14.6446 13.4179 14.8321L17.1679 18.5821C17.3554 18.7696 17.6098 18.875 17.875 18.875C17.8923 18.875 17.9095 18.8746 17.9267 18.8737C18.1737 18.8609 18.4072 18.757 18.5821 18.5821C18.7696 18.3946 18.875 18.1402 18.875 17.875C18.875 17.6098 18.7696 17.3554 18.5821 17.1679L14.8321 13.4179Z" fill="#1C1C1C"/>
<path d="M20.5442 16.8889C20.4661 17.0344 20.425 17.1973 20.425 17.3625L20.4253 17.3863C20.4274 17.476 20.4416 17.5649 20.4674 17.6507C20.5439 17.9047 20.7181 18.1179 20.9517 18.2434C21.0972 18.3215 21.2598 18.3625 21.425 18.3625C21.4537 18.3625 21.4823 18.3612 21.5109 18.3588C21.8472 18.3297 22.1462 18.133 22.3059 17.8357L26.4559 10.1107C26.5341 9.9652 26.575 9.80261 26.575 9.63745C26.575 9.60876 26.5738 9.58009 26.5713 9.55151C26.5423 9.21522 26.3456 8.91626 26.0482 8.75652C25.9027 8.67836 25.7402 8.63745 25.575 8.63745L25.5511 8.63774C25.4615 8.63988 25.3726 8.65406 25.2867 8.6799C25.0328 8.75636 24.8196 8.93056 24.6941 9.1642L20.5442 16.8889Z" fill="#1C1C1C"/>
</svg>
