<svg width="110" height="80" viewBox="0 0 110 80" fill="none" xmlns="http://www.w3.org/2000/svg">
<rect x="13" y="34" width="88" height="24" rx="3" fill="url(#paint0_linear_1_419)" fill-opacity="0.5"/>
<rect width="88" height="24" transform="matrix(-1 0 0 1 98 0)" fill="url(#paint1_linear_1_419)" fill-opacity="0.5"/>
<rect y="68" width="110" height="12" rx="6" fill="url(#paint2_linear_1_419)"/>
<line x1="31.5" y1="51.5" x2="66.5" y2="51.5" stroke="#F5F5F5" stroke-linecap="round"/>
<line x1="71.5" y1="51.5" x2="81.5" y2="51.5" stroke="#F5F5F5" stroke-linecap="round"/>
<line x1="45.5" y1="39.5" x2="81.5" y2="39.5" stroke="#F5F5F5" stroke-linecap="round"/>
<line x1="0.5" y1="-0.5" x2="35.5" y2="-0.5" transform="matrix(-1 0 0 1 79 18)" stroke="#9191A7" stroke-linecap="round"/>
<line x1="0.5" y1="-0.5" x2="10.5" y2="-0.5" transform="matrix(-1 0 0 1 39 18)" stroke="#9191A7" stroke-linecap="round"/>
<line x1="0.5" y1="-0.5" x2="36.5" y2="-0.5" transform="matrix(-1 -8.74228e-08 -8.74228e-08 1 65 6)" stroke="#9191A7" stroke-linecap="round"/>
<circle cx="12" cy="12" r="12" fill="#9191A7"/>
<circle cx="98" cy="46" r="12" fill="#F5F5F5"/>
<defs>
<linearGradient id="paint0_linear_1_419" x1="31.1176" y1="46" x2="46.8209" y2="20.2614" gradientUnits="userSpaceOnUse">
<stop stop-color="#F5F5F5" stop-opacity="0"/>
<stop offset="1" stop-color="#F5F5F5"/>
</linearGradient>
<linearGradient id="paint1_linear_1_419" x1="80.5" y1="4.5" x2="73.5669" y2="25.7611" gradientUnits="userSpaceOnUse">
<stop stop-color="#9898AE" stop-opacity="0.943428"/>
<stop offset="1" stop-color="#232330" stop-opacity="0"/>
</linearGradient>
<linearGradient id="paint2_linear_1_419" x1="58.5062" y1="65.8212" x2="56.7813" y2="82.0553" gradientUnits="userSpaceOnUse">
<stop stop-color="#9898AE" stop-opacity="0.943428"/>
<stop offset="1" stop-color="#232330"/>
</linearGradient>
</defs>
</svg>
