<svg width="110" height="80" viewBox="0 0 110 80" fill="none" xmlns="http://www.w3.org/2000/svg">
<rect x="13" y="34" width="88" height="24" rx="3" fill="url(#paint0_linear_1_125)" fill-opacity="0.5"/>
<rect width="88" height="24" rx="3" transform="matrix(-1 0 0 1 98 0)" fill="url(#paint1_linear_1_125)" fill-opacity="0.5"/>
<rect y="68" width="110" height="12" rx="6" fill="url(#paint2_linear_1_125)"/>
<line x1="31.5" y1="51.5" x2="66.5" y2="51.5" stroke="#F99417" stroke-linecap="round"/>
<line x1="71.5" y1="51.5" x2="81.5" y2="51.5" stroke="#F99417" stroke-linecap="round"/>
<line x1="45.5" y1="39.5" x2="81.5" y2="39.5" stroke="#F99417" stroke-linecap="round"/>
<line x1="0.5" y1="-0.5" x2="35.5" y2="-0.5" transform="matrix(-1 0 0 1 78 18)" stroke="#101017" stroke-linecap="round"/>
<line x1="0.5" y1="-0.5" x2="10.5" y2="-0.5" transform="matrix(-1 0 0 1 38 18)" stroke="#101017" stroke-linecap="round"/>
<line x1="0.5" y1="-0.5" x2="36.5" y2="-0.5" transform="matrix(-1 -8.74228e-08 -8.74228e-08 1 64 6)" stroke="#101017" stroke-linecap="round"/>
<circle cx="12" cy="12" r="12" fill="#101017"/>
<circle cx="98" cy="46" r="12" fill="#F99417"/>
<defs>
<linearGradient id="paint0_linear_1_125" x1="31.1176" y1="46" x2="46.8209" y2="20.2614" gradientUnits="userSpaceOnUse">
<stop stop-color="#F99417" stop-opacity="0"/>
<stop offset="1" stop-color="#F99417"/>
</linearGradient>
<linearGradient id="paint1_linear_1_125" x1="18.1176" y1="12" x2="33.8209" y2="-13.7386" gradientUnits="userSpaceOnUse">
<stop stop-color="#101017" stop-opacity="0"/>
<stop offset="1" stop-color="#101017"/>
</linearGradient>
<linearGradient id="paint2_linear_1_125" x1="-0.00219366" y1="78.8316" x2="1.42382" y2="62.5952" gradientUnits="userSpaceOnUse">
<stop stop-color="#717186" stop-opacity="0.19"/>
<stop offset="1" stop-color="#101017"/>
</linearGradient>
</defs>
</svg>
