<svg width="32" height="32" viewBox="0 0 32 32" fill="none" xmlns="http://www.w3.org/2000/svg">
<path fill-rule="evenodd" clip-rule="evenodd" d="M27.9925 12.4216L12.7071 27.707C12.5196 27.8945 12.2652 27.9999 12 27.9999H6C6 27.9999 5.17157 27.9999 4.58579 27.4141C4.58579 27.4141 4 26.8283 4 25.9999L4 20.4124C4 20.4124 3.99862 20.02 4.14902 19.6538C4.14902 19.6538 4.29942 19.2876 4.57865 19.007L19.5804 4.00528C19.5804 4.00528 19.8569 3.72443 20.2276 3.56925C20.2276 3.56925 20.5982 3.41406 21 3.41406C21 3.41406 21.4018 3.41406 21.7724 3.56925C21.7724 3.56925 22.1431 3.72443 22.425 4.01071L27.9946 9.58028C27.9946 9.58028 28.2755 9.85683 28.4306 10.2275C28.4306 10.2275 28.5858 10.5981 28.5858 10.9999C28.5858 10.9999 28.5858 11.4017 28.4306 11.7723C28.4306 11.7723 28.2769 12.1394 27.9946 12.4195L27.9925 12.4216ZM26.5858 10.9999L26.5804 10.9945L21 5.41407L20.9946 5.4195L6 20.4141V25.9999H11.5858L26.5804 11.0053L26.5858 10.9999Z" fill="#F5F5F5"/>
<path d="M23.2924 15.7066C23.4799 15.8941 23.7348 16 24 16C24.2652 16 24.5196 15.8946 24.7071 15.7071C24.8946 15.5196 25 15.2652 25 15C25 14.7348 24.8946 14.4804 24.7071 14.2929L17.7072 7.29301C17.5196 7.10536 17.2652 7 17 7C16.7348 7 16.4804 7.10536 16.2929 7.29289C16.1053 7.48043 16 7.73478 16 8C16 8.26522 16.1053 8.51957 16.2929 8.70711L23.2924 15.7066Z" fill="#F5F5F5"/>
<path d="M5.76959 19.3554C5.58206 19.1679 5.3277 19.0625 5.06249 19.0625C4.79727 19.0625 4.54292 19.1679 4.35538 19.3554C4.16784 19.5429 4.06249 19.7973 4.06249 20.0625C4.06249 20.3277 4.16784 20.5821 4.35538 20.7696L11.2929 27.7071C11.4804 27.8946 11.7348 27.9999 12 27.9999L27 28C27.5523 28 28 27.5523 28 27C28 26.4477 27.5523 26 27 26H12.4142L5.76959 19.3554Z" fill="#F5F5F5"/>
<path d="M21.2067 12.2075C21.3943 12.0199 21.5 11.7652 21.5 11.5C21.5 11.2348 21.3946 10.9804 21.2071 10.7929L21.1985 10.7844C21.0117 10.6024 20.7607 10.5 20.5 10.5C20.47 10.5 20.44 10.5013 20.4101 10.504C20.1769 10.5251 19.9585 10.6273 19.7929 10.7929L7.79326 22.7925C7.60572 22.9801 7.49999 23.2348 7.49999 23.5C7.49999 23.516 7.50037 23.532 7.50114 23.548C7.51308 23.7964 7.61709 24.0313 7.79288 24.2071C7.98042 24.3946 8.23477 24.5 8.49999 24.5C8.7652 24.5 9.01956 24.3946 9.20709 24.2071L21.2067 12.2075Z" fill="#F5F5F5"/>
</svg>
