<svg width="126" height="102" viewBox="0 0 126 102" fill="none" xmlns="http://www.w3.org/2000/svg">
<rect x="19.4629" y="3.5" width="103" height="80" stroke="#979797" stroke-dasharray="2 4"/>
<rect x="16.5508" y="0.519287" width="5" height="5" fill="#131319"/>
<rect x="68.9629" y="0.519287" width="5" height="5" fill="#131319"/>
<rect x="16.5508" y="42" width="5" height="5" fill="#131319"/>
<rect x="120.277" y="0.519287" width="5" height="5" fill="#131319"/>
<rect x="120.277" y="42" width="5" height="5" fill="#131319"/>
<rect x="120.277" y="81.124" width="5" height="5" fill="#131319"/>
<rect x="68.9629" y="81.124" width="5" height="5" fill="#131319"/>
<rect x="19.5508" y="74.1241" width="5" height="5" fill="#131319"/>
<path fill-rule="evenodd" clip-rule="evenodd" d="M24.9629 6C23.306 6 21.9629 7.34315 21.9629 9V19.7998H119.963V9C119.963 7.34315 118.62 6 116.963 6H24.9629ZM119.963 20.7998H21.9629V49.9902L60.9262 82H116.963C118.62 82 119.963 80.6569 119.963 79V20.7998ZM41.0067 13.1654C41.0067 14.5277 39.9097 15.6321 38.5567 15.6321C37.2036 15.6321 36.1067 14.5277 36.1067 13.1654C36.1067 11.8031 37.2036 10.6987 38.5567 10.6987C39.9097 10.6987 41.0067 11.8031 41.0067 13.1654ZM31.2098 13.1661C31.2098 14.5284 30.1129 15.6328 28.7598 15.6328C27.4067 15.6328 26.3098 14.5284 26.3098 13.1661C26.3098 11.8038 27.4067 10.6995 28.7598 10.6995C30.1129 10.6995 31.2098 11.8038 31.2098 13.1661ZM48.3574 15.6321C49.7105 15.6321 50.8074 14.5277 50.8074 13.1654C50.8074 11.8031 49.7105 10.6987 48.3574 10.6987C47.0043 10.6987 45.9074 11.8031 45.9074 13.1654C45.9074 14.5277 47.0043 15.6321 48.3574 15.6321Z" fill="url(#paint0_linear_1_48)"/>
<path d="M18.4978 53.0489L55.4629 83.8453L31.9151 83.8453L17.75 99.7395L18.4978 53.0489Z" fill="#F99417"/>
<defs>
<linearGradient id="paint0_linear_1_48" x1="21.9609" y1="74.6002" x2="68.5124" y2="0.0411677" gradientUnits="userSpaceOnUse">
<stop stop-color="#717186" stop-opacity="0.19"/>
<stop offset="1" stop-color="#101017"/>
</linearGradient>
</defs>
</svg>
