<svg width="32" height="32" viewBox="0 0 32 32" fill="none" xmlns="http://www.w3.org/2000/svg">
<path d="M17.414 26L19.7069 23.7071C19.8944 23.5196 19.9998 23.2652 19.9998 23C19.9998 22.7348 19.8944 22.4804 19.7069 22.2929C19.5193 22.1054 19.265 22 18.9998 22C18.7345 22 18.4802 22.1054 18.2926 22.2929L15.2926 25.2929C14.9021 25.6834 14.9021 26.3166 15.2926 26.7071L18.2923 29.7068C18.4799 29.8943 18.7345 30 18.9998 30C19.265 30 19.5193 29.8946 19.7069 29.7071C19.8944 29.5196 19.9998 29.2652 19.9998 29C19.9998 28.7348 19.8944 28.4804 19.7069 28.2929L17.414 26Z" fill="#F5F5F5"/>
<path d="M22.5182 12.2742L19.3971 11.4343C19.3123 11.4115 19.225 11.3999 19.1372 11.3999L19.1213 11.4C18.6751 11.4071 18.2875 11.7091 18.1716 12.14C18.1488 12.2248 18.1372 12.3121 18.1372 12.3999L18.1373 12.4158C18.1444 12.862 18.4464 13.2496 18.8773 13.3655L22.9648 14.4655C23.4981 14.6091 24.0468 14.2931 24.1904 13.7598L25.2904 9.65945C25.3131 9.57494 25.3247 9.4874 25.3247 9.3999L25.3246 9.38327C25.3171 8.93702 25.0149 8.54971 24.5838 8.43406C24.4993 8.41139 24.4122 8.3999 24.3247 8.3999L24.2935 8.40039C24.1287 8.40553 23.9678 8.45133 23.825 8.53372C23.5953 8.66625 23.4276 8.88462 23.3589 9.14077L22.5182 12.2742Z" fill="#F5F5F5"/>
<path d="M4.41568 13.6342C4.15952 13.7029 3.94115 13.8706 3.80862 14.1003C3.72095 14.2522 3.6748 14.4246 3.6748 14.6L3.67497 14.6183C3.67646 14.6997 3.68788 14.7805 3.70896 14.8591C3.77769 15.1153 3.94536 15.3337 4.17508 15.4662C4.32704 15.5539 4.49938 15.6 4.6748 15.6L4.69313 15.5998C4.77448 15.5983 4.85535 15.5869 4.93393 15.5658L8.06809 14.725L8.90884 17.8587C9.02609 18.2957 9.42232 18.6 9.8748 18.6L9.88235 18.6C9.96732 18.5993 10.0519 18.5879 10.1339 18.5658C10.571 18.4486 10.8748 18.0525 10.8748 17.6L10.8748 17.5925C10.8741 17.5075 10.8627 17.4229 10.8406 17.3409L9.74065 13.2409C9.67192 12.9847 9.50425 12.7664 9.27453 12.6338C9.0448 12.5013 8.77183 12.4654 8.51568 12.5342L4.41568 13.6342Z" fill="#F5F5F5"/>
<path d="M26.6036 17.3255C26.5943 17.3095 26.5844 17.2932 26.5742 17.2777C26.4396 17.0718 26.2338 16.9227 25.9961 16.859L25.9891 16.8572C25.9068 16.8358 25.8222 16.825 25.7373 16.825C25.5617 16.825 25.3893 16.8712 25.2373 16.9589C25.2213 16.9682 25.2055 16.9778 25.19 16.988C24.9075 17.1727 24.7373 17.4874 24.7373 17.825C24.7373 18.0005 24.7835 18.1729 24.8712 18.3249L27.8587 23.4999C27.9925 23.7316 27.9927 23.9991 27.9927 23.9991C27.993 24.2666 27.8596 24.4984 27.8596 24.4984C27.7263 24.7303 27.495 24.8647 27.495 24.8647C27.2637 24.999 26.9962 25 26.9962 25L15.9998 25C15.4475 25 14.9998 25.4477 14.9998 26C14.9998 26.5522 15.4475 27 15.9998 27L27.0033 26.9999C27.8057 26.9971 28.4996 26.5941 28.4996 26.5941C29.1934 26.191 29.5934 25.4954 29.5934 25.4954C29.9934 24.7997 29.9927 23.9973 29.9927 23.9973C29.992 23.1949 29.5908 22.5 29.5908 22.5L26.6036 17.3255Z" fill="#F5F5F5"/>
<path d="M9.64022 14.001C9.64817 13.9873 9.65579 13.9734 9.66308 13.9593C9.73648 13.8173 9.77479 13.6598 9.77479 13.5C9.77479 13.1432 9.58464 12.8134 9.27583 12.6346C9.2621 12.6266 9.24818 12.619 9.23409 12.6117C9.09212 12.5383 8.93462 12.5 8.77479 12.5C8.41795 12.5 8.08815 12.6901 7.90937 12.999L2.40877 22.5C2.00755 23.1949 2.00684 23.9974 2.00684 23.9974C2.00613 24.7998 2.40612 25.4954 2.40612 25.4954C2.80611 26.1911 3.49997 26.5941 3.49997 26.5941C4.19384 26.9972 4.99979 27 4.99979 27H10.9998C11.5521 27 11.9998 26.5523 11.9998 26C11.9998 25.4477 11.5521 25 10.9998 25H4.99979C4.73584 24.9991 4.50455 24.8647 4.50455 24.8647C4.27326 24.7304 4.13993 24.4985 4.13993 24.4985C4.0066 24.2666 4.00684 23.9991 4.00684 23.9991C4.00707 23.7316 4.14081 23.5 4.14081 23.5L9.64022 14.001Z" fill="#F5F5F5"/>
<path d="M13.4096 3.49854L10.4096 8.67354C10.3213 8.82592 10.2748 8.99894 10.2748 9.17507C10.2748 9.19296 10.2753 9.21084 10.2762 9.22871C10.2943 9.56576 10.4812 9.87093 10.7732 10.0402C10.9256 10.1286 11.0986 10.1751 11.2748 10.1751L11.291 10.1749C11.3724 10.1736 11.4533 10.1624 11.5319 10.1415C11.7882 10.0733 12.0069 9.90605 12.1399 9.6766L15.1399 4.5016C15.2746 4.26624 15.5044 4.133 15.5044 4.133C15.7342 3.99976 15.9998 3.99976 15.9998 3.99976C16.2654 3.99976 16.4952 4.133 16.4952 4.133C16.7249 4.26624 16.8569 4.49677 16.8569 4.49677L22.3593 14.001C22.5381 14.3099 22.8679 14.5001 23.2248 14.5001C23.2406 14.5001 23.2565 14.4997 23.2724 14.4989C23.432 14.4913 23.5875 14.4456 23.7258 14.3655C24.0346 14.1867 24.2248 13.8569 24.2248 13.5001C24.2248 13.4842 24.2244 13.4683 24.2236 13.4525C24.216 13.2929 24.1703 13.1374 24.0902 12.999L18.5927 3.50338C18.1936 2.80596 17.4985 2.40286 17.4985 2.40286C16.8033 1.99976 15.9998 1.99976 15.9998 1.99976C15.1962 1.99976 14.5011 2.40286 14.5011 2.40286C13.806 2.80596 13.4096 3.49854 13.4096 3.49854Z" fill="#F5F5F5"/>
</svg>
