<svg width="84" height="84" viewBox="0 0 84 84" fill="none" xmlns="http://www.w3.org/2000/svg">
<path fill-rule="evenodd" clip-rule="evenodd" d="M42 81.375C63.7462 81.375 81.375 63.7462 81.375 42C81.375 20.2538 63.7462 2.625 42 2.625C20.2538 2.625 2.625 20.2538 2.625 42C2.625 63.7462 20.2538 81.375 42 81.375ZM39.375 20.375C39.375 19.2704 40.2704 18.375 41.375 18.375H42.625C43.7296 18.375 44.625 19.2704 44.625 20.375V45.2131L54.5645 53.937C55.3891 54.6607 55.4767 55.9136 54.7609 56.745L54.4064 57.1568C53.6808 57.9995 52.4072 58.0886 51.5714 57.355L40.937 48.0212C40.601 47.7263 40.3874 47.3436 40.3006 46.9372C39.7441 46.5821 39.375 45.9592 39.375 45.25V20.375Z" fill="url(#paint0_linear_1_282)"/>
<rect x="2.875" y="2.875" width="78.25" height="78.25" stroke="#464646" stroke-width="0.5" stroke-dasharray="2 2"/>
<rect width="5.25" height="5.25" fill="black"/>
<rect x="39.375" width="5.25" height="5.25" fill="black"/>
<rect y="39.375" width="5.25" height="5.25" fill="black"/>
<rect x="78.75" width="5.25" height="5.25" fill="black"/>
<rect x="78.75" y="39.375" width="5.25" height="5.25" fill="black"/>
<rect x="78.75" y="78.75" width="5.25" height="5.25" fill="black"/>
<rect x="39.375" y="78.75" width="5.25" height="5.25" fill="black"/>
<rect y="78.75" width="5.25" height="5.25" fill="black"/>
<defs>
<linearGradient id="paint0_linear_1_282" x1="2.62343" y1="73.7074" x2="55.0726" y2="8.56057" gradientUnits="userSpaceOnUse">
<stop stop-color="#717186" stop-opacity="0.19"/>
<stop offset="1" stop-color="#101017"/>
</linearGradient>
</defs>
</svg>
