<svg width="103" height="81" viewBox="0 0 103 81" fill="none" xmlns="http://www.w3.org/2000/svg">
<path fill-rule="evenodd" clip-rule="evenodd" d="M63 47C63 44.7909 64.7909 43 67 43H99C101.209 43 103 44.7909 103 47V58C103 60.2091 101.209 62 99 62H67C64.7909 62 63 60.2091 63 58V47ZM71 48.9833C71 48.79 71.1567 48.6333 71.35 48.6333H94.65C94.8433 48.6333 95 48.79 95 48.9833C95 49.1766 94.8433 49.3333 94.65 49.3333H71.35C71.1567 49.3333 71 49.1766 71 48.9833ZM71.35 55.3C71.1567 55.3 71 55.4567 71 55.65C71 55.8433 71.1567 56 71.35 56H78.65C78.8433 56 79 55.8433 79 55.65C79 55.4567 78.8433 55.3 78.65 55.3H71.35Z" fill="#F5F5F5"/>
<path fill-rule="evenodd" clip-rule="evenodd" d="M25.0371 6C25.0371 2.68629 27.7234 0 31.0371 0H71.5776C74.8914 0 77.5776 2.68629 77.5776 6V15.1998H25.0371V6ZM25.0371 16.1998H77.5776V40H64C61.7909 40 60 41.7909 60 44V61C60 63.2091 61.7909 65 64 65H77.5776V75C77.5776 78.3137 74.8914 81 71.5776 81H31.0371C27.7234 81 25.0371 78.3137 25.0371 75V16.1998ZM43.0506 7.75676C42.7745 7.75676 42.5506 7.98061 42.5506 8.25676C42.5506 8.5329 42.7745 8.75676 43.0506 8.75676H59.5641C59.8403 8.75676 60.0641 8.5329 60.0641 8.25676C60.0641 7.98061 59.8403 7.75676 59.5641 7.75676H43.0506ZM54.5912 73.3378C54.5912 75.1514 53.121 76.6216 51.3074 76.6216C49.4938 76.6216 48.0236 75.1514 48.0236 73.3378C48.0236 71.5243 49.4938 70.0541 51.3074 70.0541C53.121 70.0541 54.5912 71.5243 54.5912 73.3378Z" fill="url(#paint0_linear_1_398)"/>
<path fill-rule="evenodd" clip-rule="evenodd" d="M18.0371 22C20.2462 22 22.0371 23.7909 22.0371 26V38.0174V45.5551C22.0371 46.7665 20.2885 45.2521 19.0396 44.0159C18.2327 43.2172 17.1578 42.7285 16.0223 42.7285H4.03711C1.82797 42.7285 0.0371094 40.9376 0.0371094 38.7285V26C0.0371094 23.7909 1.82797 22 4.03711 22H18.0371ZM4.05457 27.8948C3.86127 27.8948 3.70457 28.0515 3.70457 28.2448C3.70457 28.4381 3.86127 28.5948 4.05457 28.5948H18.0212C18.2145 28.5948 18.3712 28.4381 18.3712 28.2448C18.3712 28.0515 18.2145 27.8948 18.0212 27.8948H4.05457ZM4.05457 32.6066C3.86127 32.6066 3.70457 32.7633 3.70457 32.9566C3.70457 33.1499 3.86127 33.3066 4.05457 33.3066H18.0212C18.2145 33.3066 18.3712 33.1499 18.3712 32.9566C18.3712 32.7633 18.2145 32.6066 18.0212 32.6066H4.05457ZM3.70457 37.6679C3.70457 37.4746 3.86127 37.3179 4.05457 37.3179H10.6879C10.8812 37.3179 11.0379 37.4746 11.0379 37.6679C11.0379 37.8612 10.8812 38.0179 10.6879 38.0179H4.05457C3.86127 38.0179 3.70457 37.8612 3.70457 37.6679Z" fill="url(#paint1_linear_1_398)"/>
<defs>
<linearGradient id="paint0_linear_1_398" x1="52.9821" y1="-14.7068" x2="1.85626" y2="19.3414" gradientUnits="userSpaceOnUse">
<stop stop-color="#9898AE" stop-opacity="0.943428"/>
<stop offset="1" stop-color="#232330"/>
</linearGradient>
<linearGradient id="paint1_linear_1_398" x1="11.7384" y1="17.6424" x2="-4.64886" y2="33.0652" gradientUnits="userSpaceOnUse">
<stop stop-color="#9898AE" stop-opacity="0.943428"/>
<stop offset="1" stop-color="#232330"/>
</linearGradient>
</defs>
</svg>
