<svg width="110" height="95" viewBox="0 0 110 95" fill="none" xmlns="http://www.w3.org/2000/svg">
<path fill-rule="evenodd" clip-rule="evenodd" d="M74.1312 23.0383C74.1312 34.1066 65.1608 43.0769 54.0926 43.0769C43.0244 43.0769 34.054 34.1066 34.054 23.0383C34.054 11.9701 43.0244 2.99976 54.0926 2.99976C65.1608 2.99976 74.1312 11.9701 74.1312 23.0383ZM89.1602 75.6397C89.1602 79.7883 85.7943 83.1541 81.6457 83.1541H31.8434L30.45 80.3275C35.1013 76.4717 38.0716 70.6452 38.0716 64.1213C38.0716 58.4848 35.8552 53.3659 32.2465 49.5887C34.664 48.6197 37.3028 48.0866 40.0657 48.0866H42.6799C46.1712 49.6835 50.0223 50.5914 54.0926 50.5914C58.1629 50.5914 62.0298 49.6835 65.5053 48.0866H68.1196C79.7357 48.0866 89.1602 57.511 89.1602 69.1272V75.6397Z" fill="url(#paint0_linear_1_359)"/>
<path fill-rule="evenodd" clip-rule="evenodd" d="M81.627 0C79.4178 0 77.627 1.79086 77.627 4V22.9307V33.7216C77.627 35.6544 80.8226 32.7405 82.6348 30.9327C83.4251 30.1443 84.4874 29.675 85.6038 29.675H106C108.209 29.675 110 27.8842 110 25.675V4C110 1.79086 108.209 0 106 0H81.627ZM83.3743 8.74114C83.181 8.74114 83.0243 8.89784 83.0243 9.09114C83.0243 9.28444 83.181 9.44114 83.3743 9.44114H104.256C104.449 9.44114 104.606 9.28444 104.606 9.09114C104.606 8.89784 104.449 8.74114 104.256 8.74114H83.3743ZM83.3743 15.4866C83.181 15.4866 83.0243 15.6433 83.0243 15.8366C83.0243 16.0299 83.181 16.1866 83.3743 16.1866H104.256C104.449 16.1866 104.606 16.0299 104.606 15.8366C104.606 15.6433 104.449 15.4866 104.256 15.4866H83.3743ZM83.0243 22.581C83.0243 22.3877 83.181 22.231 83.3743 22.231H93.4652C93.6585 22.231 93.8152 22.3877 93.8152 22.581C93.8152 22.7743 93.6585 22.931 93.4652 22.931H83.3743C83.181 22.931 83.0243 22.7743 83.0243 22.581Z" fill="url(#paint1_linear_1_359)"/>
<path fill-rule="evenodd" clip-rule="evenodd" d="M22.5837 80.1634C20.8438 80.7629 18.9763 81.0884 17.0328 81.0884C7.62585 81.0884 0 73.4626 0 64.0556C0 54.6487 7.62585 47.0228 17.0328 47.0228C26.4398 47.0228 34.0656 54.6487 34.0656 64.0556C34.0656 70.4506 30.5414 76.0224 25.3293 78.9348L31.8598 92.1821C32.2268 92.9266 31.9208 93.8276 31.1763 94.1946C30.4318 94.5616 29.5308 94.2556 29.1638 93.5111L22.5837 80.1634ZM31.2275 64.0557C31.2275 71.8948 24.8726 78.2497 17.0335 78.2497C9.19433 78.2497 2.83945 71.8948 2.83945 64.0557C2.83945 56.2166 9.19433 49.8617 17.0335 49.8617C24.8726 49.8617 31.2275 56.2166 31.2275 64.0557Z" fill="#F5F5F5"/>
<defs>
<linearGradient id="paint0_linear_1_359" x1="61.6764" y1="-11.5535" x2="8.99991" y2="28.0604" gradientUnits="userSpaceOnUse">
<stop stop-color="#9898AE" stop-opacity="0.943428"/>
<stop offset="1" stop-color="#232330"/>
</linearGradient>
<linearGradient id="paint1_linear_1_359" x1="94.8452" y1="-6.23835" x2="71.3549" y2="16.4853" gradientUnits="userSpaceOnUse">
<stop stop-color="#9898AE" stop-opacity="0.943428"/>
<stop offset="1" stop-color="#232330"/>
</linearGradient>
</defs>
</svg>
