<svg width="110" height="95" viewBox="0 0 110 95" fill="none" xmlns="http://www.w3.org/2000/svg">
<path fill-rule="evenodd" clip-rule="evenodd" d="M74.1312 23.0385C74.1312 34.1067 65.1608 43.0771 54.0926 43.0771C43.0244 43.0771 34.054 34.1067 34.054 23.0385C34.054 11.9702 43.0244 2.99988 54.0926 2.99988C65.1608 2.99988 74.1312 11.9702 74.1312 23.0385ZM89.1602 75.6398C89.1602 79.7884 85.7943 83.1543 81.6457 83.1543H31.8434L30.45 80.3276C35.1013 76.4718 38.0716 70.6454 38.0716 64.1215C38.0716 58.4849 35.8552 53.3661 32.2465 49.5888C34.664 48.6199 37.3028 48.0867 40.0657 48.0867H42.6799C46.1712 49.6836 50.0223 50.5916 54.0926 50.5916C58.1629 50.5916 62.0298 49.6836 65.5053 48.0867H68.1196C79.7357 48.0867 89.1602 57.5112 89.1602 69.1273V75.6398Z" fill="url(#paint0_linear_1_18)"/>
<path fill-rule="evenodd" clip-rule="evenodd" d="M81.627 0.00012207C79.4178 0.00012207 77.627 1.79098 77.627 4.00012V22.9308V33.7218C77.627 35.6546 80.8226 32.7407 82.6348 30.9328C83.4251 30.1444 84.4874 29.6752 85.6038 29.6752H106C108.209 29.6752 110 27.8843 110 25.6752V4.00012C110 1.79098 108.209 0.00012207 106 0.00012207H81.627ZM83.3743 8.74126C83.181 8.74126 83.0243 8.89796 83.0243 9.09126C83.0243 9.28456 83.181 9.44126 83.3743 9.44126H104.256C104.449 9.44126 104.606 9.28456 104.606 9.09126C104.606 8.89796 104.449 8.74126 104.256 8.74126H83.3743ZM83.3743 15.4867C83.181 15.4867 83.0243 15.6434 83.0243 15.8367C83.0243 16.03 83.181 16.1867 83.3743 16.1867H104.256C104.449 16.1867 104.606 16.03 104.606 15.8367C104.606 15.6434 104.449 15.4867 104.256 15.4867H83.3743ZM83.0243 22.5811C83.0243 22.3878 83.181 22.2311 83.3743 22.2311H93.4652C93.6585 22.2311 93.8152 22.3878 93.8152 22.5811C93.8152 22.7744 93.6585 22.9311 93.4652 22.9311H83.3743C83.181 22.9311 83.0243 22.7744 83.0243 22.5811Z" fill="url(#paint1_linear_1_18)"/>
<path fill-rule="evenodd" clip-rule="evenodd" d="M22.5837 80.1636C20.8438 80.7631 18.9763 81.0886 17.0328 81.0886C7.62585 81.0886 0 73.4627 0 64.0558C0 54.6488 7.62585 47.0229 17.0328 47.0229C26.4398 47.0229 34.0656 54.6488 34.0656 64.0558C34.0656 70.4507 30.5414 76.0225 25.3293 78.9349L31.8598 92.1822C32.2268 92.9267 31.9208 93.8277 31.1763 94.1947C30.4318 94.5617 29.5308 94.2557 29.1638 93.5113L22.5837 80.1636ZM31.2275 64.0558C31.2275 71.895 24.8726 78.2498 17.0335 78.2498C9.19433 78.2498 2.83945 71.895 2.83945 64.0558C2.83945 56.2167 9.19433 49.8618 17.0335 49.8618C24.8726 49.8618 31.2275 56.2167 31.2275 64.0558Z" fill="#F99417"/>
<defs>
<linearGradient id="paint0_linear_1_18" x1="17.1114" y1="75.1393" x2="73.0373" y2="14.343" gradientUnits="userSpaceOnUse">
<stop stop-color="#717186" stop-opacity="0.19"/>
<stop offset="1" stop-color="#101017"/>
</linearGradient>
<linearGradient id="paint1_linear_1_18" x1="76.5761" y1="30.9231" x2="100.318" y2="2.99063" gradientUnits="userSpaceOnUse">
<stop stop-color="#717186" stop-opacity="0.19"/>
<stop offset="1" stop-color="#101017"/>
</linearGradient>
</defs>
</svg>
