<svg width="32" height="32" viewBox="0 0 32 32" fill="none" xmlns="http://www.w3.org/2000/svg">
<path d="M16 23.5C16.8284 23.5 17.5 22.8284 17.5 22C17.5 21.1716 16.8284 20.5 16 20.5C15.1716 20.5 14.5 21.1716 14.5 22C14.5 22.8284 15.1716 23.5 16 23.5Z" fill="#1C1C1C"/>
<path d="M16 11.5C16.8284 11.5 17.5 10.8284 17.5 10C17.5 9.17157 16.8284 8.5 16 8.5C15.1716 8.5 14.5 9.17157 14.5 10C14.5 10.8284 15.1716 11.5 16 11.5Z" fill="#1C1C1C"/>
<path fill-rule="evenodd" clip-rule="evenodd" d="M21.0605 4.02201C18.6442 3 16 3 16 3C13.3558 3 10.9395 4.02201 10.9395 4.02201C8.60638 5.00884 6.80761 6.80761 6.80761 6.80761C5.00885 8.60638 4.02202 10.9395 4.02202 10.9395C3 13.3558 3 16 3 16C3 18.6442 4.02202 21.0605 4.02202 21.0605C5.00884 23.3936 6.80761 25.1924 6.80761 25.1924C8.60638 26.9912 10.9395 27.978 10.9395 27.978C13.3558 29 16 29 16 29C18.6442 29 21.0605 27.978 21.0605 27.978C23.3936 26.9912 25.1924 25.1924 25.1924 25.1924C26.9912 23.3936 27.978 21.0605 27.978 21.0605C29 18.6442 29 16 29 16C29 13.3558 27.978 10.9395 27.978 10.9395C26.9912 8.60638 25.1924 6.80761 25.1924 6.80761C23.3936 5.00884 21.0605 4.02201 21.0605 4.02201ZM23.7782 8.22183C23.7782 8.22183 23.1894 7.63301 22.2695 6.98693C22.667 7.80096 23 8.83152 23 10C23 10 23 12.8995 20.9497 14.9497C20.9497 14.9497 18.8995 17 16 17C16 17 13.9289 17 12.4645 18.4645C12.4645 18.4645 11 19.9289 11 22C11 22 11 24.0711 12.4645 25.5355C12.4645 25.5355 13.9289 27 16 27C16 27 18.2386 27 20.2814 26.136C20.2814 26.136 22.2552 25.3011 23.7782 23.7782C23.7782 23.7782 25.3011 22.2552 26.136 20.2814C26.136 20.2814 27 18.2386 27 16C27 16 27 13.7614 26.136 11.7186C26.136 11.7186 25.3011 9.74476 23.7782 8.22183ZM9 22C9 23.1685 9.33297 24.199 9.73054 25.0131C8.81064 24.367 8.22183 23.7782 8.22183 23.7782C6.69889 22.2552 5.86402 20.2814 5.86402 20.2814C5 18.2386 5 16 5 16C5 13.7614 5.86402 11.7186 5.86402 11.7186C6.6989 9.74476 8.22183 8.22182 8.22183 8.22182C9.74476 6.69889 11.7186 5.86402 11.7186 5.86402C13.7614 5 16 5 16 5C18.0711 5 19.5355 6.46447 19.5355 6.46447C21 7.92893 21 10 21 10C21 12.0711 19.5355 13.5355 19.5355 13.5355C18.0711 15 16 15 16 15C13.1005 15 11.0503 17.0503 11.0503 17.0503C9 19.1005 9 22 9 22Z" fill="#1C1C1C"/>
</svg>
