<?xml version="1.0" encoding="UTF-8"?>
<svg xmlns="http://www.w3.org/2000/svg" width="258.9700927734375" height="54.70001220703125" viewBox="102.5742187499997 908.5000000000003 258.9700927734375 54.70001220703125" preserveAspectRatio="none">
  <g>
    <defs>
      <path id="s-Path_8-d1224" d="M113.32425869100209 946.0603782150453 C112.84935734695544 944.6356742343714 112.63349310434023 942.8655873831675 112.63349310434023 940.4479079070501 C112.63349310434023 938.0302284309327 112.84935734695544 936.2601416826608 113.32425869100209 934.8354375990548 C114.6194441466933 930.8203626040664 118.07327202853651 928.575374563214 122.60642112345573 928.575374563214 C125.97390339059854 928.575374563214 128.60744690346695 929.9569057365377 130.42070687081736 932.1155480597577 C130.59339826748283 932.2882394564231 130.59339826748283 932.5904494038043 130.377534021651 932.7631407876032 C130.377534021651 932.7631407876032 130.377534021651 932.7631407876032 130.33436117248462 932.8063136367696 L127.39860739057221 935.4398573555022 C127.18274314795701 935.6125487521676 126.92370604652555 935.6125487521676 126.7510146627266 935.3103388047865 C125.5853477320181 934.0583261564454 124.4628536086598 933.3675606212497 122.6064210398234 933.3675606212497 C120.5772972415862 933.3675606212497 119.06624754327979 934.3605361166932 118.41865481543418 936.3033144031621 C118.07327202210325 937.4258084235883 117.98692633020377 938.7641666866298 117.98692633020377 940.4910806275514 C117.98692633020377 942.2179945684729 118.1164448809195 943.5995256388645 118.46182767425043 944.722019865155 C119.10942040209603 946.6216252413416 120.66364290775265 947.6577736470673 122.64959389863965 947.6577736470673 C124.50602646747605 947.6577736470673 125.71486610260267 946.9670080604055 126.79418752154285 945.7149954635305 C126.96687891820832 945.4991312209154 127.22591600677326 945.4991312209154 127.44178024938846 945.6718226143641 L130.37753403130085 948.3053663330968 C130.59339827391608 948.4780577297622 130.55022542796632 948.7370948183271 130.42070688046724 948.9529590609424 C128.60744732484523 951.0684286797442 126.0170764134628 952.4499599559999 122.60642113310561 952.4499599559999 C118.11644421829416 952.3204412508861 114.6194441466933 950.1617988247341 113.32425869100209 946.0603782150453 M214.52141793468712 946.0603782150453 C214.04651659064046 944.6356742343714 213.83065234802524 942.8655873831675 213.83065234802524 940.4479079070501 C213.83065234802524 938.0302284309327 214.04651659064046 936.2601416826608 214.52141793468712 934.8354375990548 C215.8166033903783 930.8203626040664 219.27043127222151 928.575374563214 223.80358036714074 928.575374563214 C227.17106263428354 928.575374563214 229.84777916036637 929.9569057365377 231.61786611450236 932.1155480597577 C231.79055751116783 932.2882394564231 231.79055751116783 932.5904494038043 231.574693265336 932.7631407876032 C231.574693265336 932.7631407876032 231.574693265336 932.7631407876032 231.53152041616966 932.8063136367696 L228.59576663425725 935.4398573555022 C228.37990239164202 935.6125487521676 228.1208652902106 935.6125487521676 227.94817390641163 935.3103388047865 C226.78250697570314 934.0583261564454 225.66001285234483 933.3675606212497 223.80358028350844 933.3675606212497 C221.77445648527123 933.3675606212497 220.26340678696482 934.3605361166932 219.6158140591192 936.3033144031621 C219.22725843270507 937.4258084235883 219.14091271507255 938.7641666866298 219.14091271507255 940.4910806275514 C219.14091271507255 942.2179945684729 219.27043126578826 943.5995256388645 219.6158140591192 944.722019865155 C220.26340678696482 946.6216252413416 221.8176292926214 947.6577736470673 223.80358028350844 947.6577736470673 C225.66001285234483 947.6577736470673 226.86885248747143 946.9670080604055 227.94817390641163 945.7149954635305 C228.1208653030771 945.4991312209154 228.37990239164202 945.4991312209154 228.59576663425725 945.6718226143641 L231.53152041616966 948.3053663330968 C231.74738465878482 948.4780577297622 231.70421181283507 948.7370948183271 231.574693265336 948.9529590609424 C229.76143370971397 951.0684286797442 227.17106279833155 952.4499599559999 223.7604075179744 952.4499599559999 C219.27043127222151 952.3204412508861 215.8597788739629 950.1617988247341 214.52141793468712 946.0603782150453 M333.24673819773983 951.8023617984866 C332.9877010963084 951.8023617984866 332.7718368536932 951.629670401821 332.7718368536932 951.3274604544399 L332.7718368536932 938.2460876813414 C332.7718368536932 935.310333899429 331.30395996273694 933.2812101011918 328.49772501460353 933.2812101011918 C325.7778354753063 933.2812101011918 324.1804401622995 935.310333899429 324.1804401622995 938.2460876813414 L324.1804401622995 951.3274604544399 C324.1804401622995 951.5864975558713 324.00774876563406 951.8023617984866 323.7055388182528 951.8023617984866 L319.3882539659488 951.8023617984866 C319.1292168645174 951.8023617984866 318.91335262190216 951.629670401821 318.91335262190216 951.3274604544399 L318.91335262190216 938.2460876813414 C318.91335262190216 935.310333899429 317.445475730946 933.2812101011918 314.6392407828125 933.2812101011918 C311.91935124351534 933.2812101011918 310.3219559305085 935.310333899429 310.3219559305085 938.2460876813414 L310.3219559305085 951.3274604544399 C310.3219559305085 951.5864975558713 310.14926453384305 951.8023617984866 309.84705458646187 951.8023617984866 L305.52976973415787 951.8023617984866 C305.27073263272644 951.8023617984866 305.0548683901112 951.629670401821 305.0548683901112 951.3274604544399 L305.0548683901112 929.5683441400622 C305.0548683901112 929.3093070386308 305.2275597867767 929.0934427960156 305.52976973415787 929.0934427960156 L309.84705458646187 929.0934427960156 C310.10609168789335 929.0934427960156 310.3219559305085 929.2661341926811 310.3219559305085 929.5683441400622 L310.3219559305085 931.2089123633514 L310.3651287796749 931.2089123633514 C311.3581042751184 929.7842083826774 313.3008825615873 928.5753686446187 316.3229819582001 928.5753686446187 C318.99969848428293 928.5753686446187 321.1151683089489 929.6546898576947 322.49669937934055 931.5542952338814 L322.5398722285069 931.5542952338814 C324.2667861694285 929.6546898576947 326.5117742102809 928.5753686446187 329.7497382612373 928.5753686446187 C334.9736530972165 928.5753686446187 337.952579480615 932.1587151543768 337.952579480615 937.0372471198259 L337.952579480615 951.370633158858 C337.952579480615 951.6296702602895 337.7798880839495 951.8455345029047 337.47767813656833 951.8455345029047 L333.24673819773983 951.8023617984866 L333.24673819773983 951.8023617984866 Z M343.99678802022305 959.789338775249 C343.7377509187916 959.789338775249 343.5218866761764 959.6166473785835 343.5218866761764 959.3144374312024 L343.5218866761764 955.5583996920435 C343.5218866761764 955.299362590612 343.69457807284186 955.0834983479969 343.99678802022305 955.0834983479969 L344.8170721318676 955.0834983479969 C346.6303316874896 955.0834983479969 347.4937886579504 954.2632142363523 348.1845543990104 952.406781821914 L348.832147126856 950.5071764457274 L340.586132894264 929.0934442370649 C340.4997871959313 928.8344071356335 340.7156514449797 928.6185428930182 340.97468852067817 928.6185428930182 L345.59418323029774 928.6185428930182 C345.85322033172923 928.6185428930182 346.0690845743444 928.7912342896836 346.1554302405109 929.0934442370649 L351.20665343536086 943.901730951085 L351.33617198607664 943.901730951085 L356.17153093831143 929.0934442370649 C356.30104948902715 928.8344071356335 356.43056803974287 928.6185428930182 356.73277794852453 928.6185428930182 L361.13640841552893 928.6185428930182 C361.3954455169604 928.6185428930182 361.6113097595756 928.7912342896836 361.5249640419431 929.0934442370649 L353.0199125535215 952.7953387349793 C351.0771343699847 958.1919448003594 349.2207018011483 959.8756857280665 345.4214910487751 959.8756857280665 L343.99678802022305 959.789338775249 L343.99678802022305 959.789338775249 Z M147.86253586252076 944.6356663086003 C148.2510914889349 943.4268265705416 148.33743720656742 942.3475052545335 148.33743720656742 940.4479000842111 C148.33743720656742 938.5482947080245 148.2079186558517 937.5121463022987 147.86253586252076 936.2601338598218 C147.21494313467514 934.3605284836352 145.74706624371896 933.3243800779094 143.67476963813152 933.3243800779094 C141.60247282667993 933.3243800779094 140.09142312837352 934.4037012909855 139.4006577990419 936.2601338598218 C139.01210217262775 937.4689735978806 138.92575645499525 938.5051219006743 138.92575645499525 940.4479000842111 C138.92575645499525 942.3475054603977 139.055275005711 943.4268266734737 139.4006577990419 944.6356663086003 C140.0482505268875 946.535271684787 141.5161274178437 947.5714200905127 143.67476963813152 947.5714200905127 C145.74706891995334 947.6577657052131 147.21494313467514 946.5352821838603 147.86253586252076 944.6356663086003 M134.34943625110535 946.0603782150453 C133.87453490705872 944.4629827991064 133.57232499827705 942.9519332037321 133.57232499827705 940.4479079070501 C133.57232499827705 937.9438826103681 133.78818924089225 936.476005925276 134.34943625110535 934.8354375990548 C135.60144889944635 930.8635356172808 139.05527657542538 928.575374563214 143.631598683559 928.575374563214 C148.16474777847822 928.575374563214 151.575402647107 930.8635356172808 152.87058810279825 934.8354375990548 C153.34548944684488 936.4328330149938 153.64769935562654 937.9438826103681 153.64769935562654 940.4479079070501 C153.64769935562654 942.9519332037321 153.43183511301135 944.4198098888241 152.87058810279825 946.0603782150453 C151.61857545445724 950.0322801968193 148.16474777847822 952.3204412508861 143.631598683559 952.3204412508861 C139.09844958863977 952.3204412508861 135.64462170679656 950.0322723739803 134.34943625110535 946.0603782150453 M244.18115696483102 928.575374563214 C240.46829182715823 928.575374563214 238.00743954369062 929.4388315336748 236.237353001283 930.8203626040664 C236.06466160461753 930.993054000732 236.02148875866777 931.2089182304805 236.10783445056728 931.4247824730958 L237.83474839148886 934.533227484409 C238.00743978815433 934.7490917270243 238.26647687671925 934.7922645858405 238.48234111933448 934.6627460351248 C239.5616623324105 933.799289064664 241.11588483806707 933.0653506191859 243.6199099288849 933.0653506191859 C247.28960205334334 933.0653506191859 248.54161449582017 934.1446718322618 248.62796052224894 936.6055241157294 L248.62796052224894 944.1607726072615 C248.62796052224894 946.794316325994 246.8147009666269 948.0463289743351 243.6199099288849 948.0463289743351 C241.1158846322029 948.0463289743351 239.7343535618113 947.1396991965241 239.7343535618113 945.1969210129873 C239.7343535618113 943.0814513941855 241.20223045276748 942.1316488090242 244.5697125140461 942.1316488090242 L245.60586091977194 942.1316488090242 C245.86489802120337 942.1316488090242 246.0807622638186 941.9589574123588 246.0807622638186 941.6567474649776 L246.0807622638186 938.677820875715 C246.0807622638186 938.4187837742836 245.90807086715313 938.2029195316684 245.60586091977194 938.2029195316684 L243.74942835093555 938.2029195316684 C238.18013105615466 938.2029195316684 234.76947618752587 940.4910805857352 234.76947618752587 945.4127855643987 C234.76947618752587 950.1617989019331 238.22330406936908 952.3204413280852 242.36789769227227 952.3204413280852 C245.5195157167999 952.3204413280852 247.67815814295187 951.2411201150092 248.71430634281353 949.6868976093526 L248.75747919197988 949.6868976093526 L248.75747919197988 951.3274658326417 C248.75747919197988 951.5865029340731 248.93017058864535 951.8023671766883 249.23238053602654 951.8023671766883 L253.1611099163145 951.8023671766883 C253.420147017746 951.8023671766883 253.63601126036116 951.6296757800228 253.63601126036116 951.3274658326417 L253.63601126036116 936.5191760563919 C253.54967036445385 930.9930567155659 251.04565042024063 928.575374563214 244.18115696483102 928.575374563214 M188.9630863389242 938.1597390301442 C188.83356778820848 938.1597390301442 188.74722209630903 938.2029118793107 188.74722209630903 938.3756032727595 L188.74722209630903 941.9157767693031 C188.74722209630903 942.0452953200188 188.79039494547538 942.1316410119183 188.9630863389242 942.1316410119183 L200.5334094137163 942.1316410119183 C200.8787922070472 942.1316410119183 201.00831075776296 941.9589496152528 201.00831075776296 941.6567396678716 C201.00831075776296 937.9870475434133 200.79244651514773 936.4328248318925 200.23119950493464 934.8354295188856 C198.97918685659363 930.949873151812 195.611704795315 928.5753664830448 190.949037072481 928.5753664830448 C186.45906099077615 928.5753664830448 183.00523310893294 930.8635275371116 181.71004765324176 934.8354295188856 C181.2351463091951 936.3033064098419 180.93293640041344 938.1165659654639 180.93293640041344 940.4478998268809 C180.93293640041344 942.7792336882978 181.27831919374438 944.5493204365697 181.753220512058 946.0171971216616 C183.005233160399 949.9890991034357 186.37271522167762 952.3204331707169 191.1217289709404 952.3204331707169 C195.2663225938436 952.3204331707169 198.41794020664287 950.723037754778 200.40389140339403 948.4348768036433 C200.5765828000595 948.2190125610281 200.5765828000595 947.9599754595966 200.36071855422767 947.7872840757977 L197.6408290149305 945.32643179233 C197.42496477231526 945.1537403956646 197.16592767088383 945.1537403956646 196.9500634282686 945.4559503430457 C195.78439649756012 946.7079629913868 194.23017388897142 947.6145927691978 191.639802977589 947.6145927691978 C189.13577768090698 947.6145927691978 187.322518125285 946.405753031139 186.631752384225 944.1607648873546 C186.50223383350928 943.8153820940237 186.4158881416098 943.5131721595089 186.37271528279354 943.1677893919111 C186.2000238861281 942.088468178835 186.1136781813621 941.0091469657591 186.1136781813621 939.8866529453328 C186.15685103052846 938.5914674896417 186.24319673207782 937.7711833265311 186.37271528279354 936.7350349208052 L186.37271528279354 936.6055163700895 C186.41588813195992 936.3464792686581 186.4590609811263 936.1306150260428 186.545406679459 935.9147507834277 C187.14982654848836 934.0583182145913 188.8335677335258 932.9789970015153 190.94903714646344 932.9789970015153 C193.06450676526524 932.9789970015153 194.70507488562225 934.0583182145913 195.30949501198182 935.9147507834277 C195.4821864086473 936.519170652457 195.5685321134133 937.1667634317687 195.5685321134133 937.8143561596142 C195.5685321134133 937.9870475562798 195.43901356269757 938.0733932610458 195.30949501198182 938.0733932610458 L188.9630863389242 938.1597390301442 L188.9630863389242 938.1597390301442 Z M176.65882450985777 919.465900889791 L172.34153965755377 919.465900889791 C172.08250255612228 919.465900889791 171.8666383135071 919.6385922864565 171.8666383135071 919.9408022338376 L171.8666383135071 941.3545344425002 C171.82346546434073 942.6497198981914 171.65077407089188 943.5131768686522 171.43490982827672 944.2902882244126 C170.83048995924736 946.1898936005991 169.3626130168251 947.1828689931106 167.24714360388748 947.1828689931106 C165.17484679243586 947.1828689931106 163.70697010734386 946.1467205873848 163.10254998098426 944.2902882244126 C162.75716718765335 943.2541398186868 162.62764863693764 942.1316457982606 162.62764863693764 940.059348986809 C162.62764863693764 937.9870521753573 162.80034003360308 936.8645581549312 163.10254998098426 935.8284097492053 C163.70696985001362 933.971977180369 165.1316737792215 932.9358289805074 167.11762497597266 932.892655967293 L168.97405754480909 932.892655967293 C169.06040324314182 932.892655967293 169.14674894147453 932.7631374165773 169.14674894147453 932.6767917246777 L169.14674894147453 928.3595068723737 C169.14674894147453 928.2299883216581 169.10357609230817 928.1868154757083 168.97405754480909 928.1436426297586 L165.73609390558107 928.1436426297586 C161.98005616642223 928.1868154789249 159.26016662712505 930.0000751985949 158.09449938762026 933.583421708353 C157.53325237740717 935.3103356492745 157.2742152759757 936.9077309622813 157.2742152759757 939.9730033721086 C157.2742152759757 943.0382755760716 157.4900795185909 944.5924980817282 158.09449938762026 946.3625850358642 C159.26016631832877 950.0322771603226 162.06640136939427 951.8023641144586 165.90878513498188 951.8023641144586 C168.9740573389449 951.8023641144586 170.83048970191712 950.6366971837501 171.8666383135071 949.1256475883758 L171.90981116267346 949.1256475883758 L171.90981116267346 950.8093887219472 C171.90981116267346 951.0684258233787 172.08250255933893 951.2842900659938 172.38471250672012 951.2842900659938 L176.70199735902412 951.2842900659938 C176.96103446045558 951.2842900659938 177.17689870307078 951.1115986693284 177.17689870307078 950.8093887219472 L177.17689870307078 919.768109975116 C177.13372847867277 919.6385896488216 176.91786423605757 919.465900889791 176.65882450985777 919.465900889791 M289.29678367140804 938.1597390301442 C289.16726512069226 938.1597390301442 289.0809194287928 938.2029118793107 289.0809194287928 938.3756032727595 L289.0809194287928 941.9157767693031 C289.0809194287928 942.0452953200188 289.12409227795916 942.1316410119183 289.29678367140804 942.1316410119183 L300.8671067462001 942.1316410119183 C301.212489539531 942.1316410119183 301.34200809024674 941.9589496152528 301.34200809024674 941.6567396678716 C301.34200809024674 937.9870475434133 301.1261438476315 936.4328248318925 300.5648968374184 934.8354295188856 C299.3128841890774 930.949873151812 295.9454021277988 928.5753664830448 291.2827344049648 928.5753664830448 C286.79275832326 928.5753664830448 283.3389304414168 930.8635275371116 282.04374498572554 934.8354295188856 C281.5688436416789 936.3033064098419 281.2666337328972 938.1165659654639 281.2666337328972 940.4478998268809 C281.2666337328972 942.7792336882978 281.61201652622816 944.5493204365697 282.0869178445418 946.0171971216616 C283.3389304928828 949.9890991034357 286.70641255416143 952.3204331707169 291.4554263034242 952.3204331707169 C295.60001992632743 952.3204331707169 298.75163753912665 950.723037754778 300.73758873587786 948.4348768036433 C300.9102801325433 948.2190125610281 300.9102801325433 947.9599754595966 300.69441588671145 947.7872840757977 L297.97452634741427 945.32643179233 C297.75866210479904 945.1537403956646 297.4996250033676 945.1537403956646 297.28376076075244 945.4559503430457 C296.1180938300439 946.7079629913868 294.5638712214552 947.6145927691978 291.9735003100728 947.6145927691978 C289.4694750133908 947.6145927691978 287.6562154577688 946.405753031139 286.9654497167088 944.1607648873546 C286.8359311659931 943.8153820940237 286.7495854740936 943.5131721595089 286.7064126152774 943.1677893919111 C286.5337212186119 942.088468178835 286.4473755138459 941.0091469657591 286.4473755138459 939.8866529453328 C286.49054836301224 938.5914674896417 286.5768940645616 937.7711833265311 286.7064126152774 936.7350349208052 L286.7064126152774 936.6055163700895 C286.7495854644437 936.3464792686581 286.7927583136101 936.1306150260428 286.8791040119428 935.9147507834277 C287.48352388097214 934.0583182145913 289.16726506600963 932.9789970015153 291.28273447894725 932.9789970015153 C293.39820409774904 932.9789970015153 295.03877221810603 934.0583182145913 295.64319234446566 935.9147507834277 C295.81588374113113 936.519170652457 295.9022294458971 937.1667634317687 295.9022294458971 937.8143561596142 C295.9022294458971 937.9870475562798 295.7727108951814 938.0733932610458 295.64319234446566 938.0733932610458 L289.29678367140804 938.1597390301442 L289.29678367140804 938.1597390301442 Z M276.94935953406474 919.465900889791 L272.63207468176074 919.465900889791 C272.37303758032925 919.465900889791 272.1571733377141 919.6385922864565 272.1571733377141 919.9408022338376 L272.1571733377141 941.3977082791713 C272.11400048854773 942.6928937348625 271.94130909509886 943.5563507053233 271.7254448524837 944.3334620610838 C271.12102498345433 946.2330674372703 269.65314804103207 947.2692158429961 267.53767862809445 947.2692158429961 C265.42220900929266 947.2692158429961 263.99750513155084 946.2330674372703 263.39308500519127 944.3334620610838 C263.0477022118603 943.2973136553579 262.9181836611446 942.1748196349317 262.9181836611446 940.1025228234801 C262.9181836611446 938.0302260120285 263.0908750578101 936.9077319916023 263.39308500519127 935.8715835858765 C263.9975048742206 934.0151510170401 265.4222088034285 932.9790028171785 267.40816000017963 932.9358298039641 L269.2645925690161 932.9358298039641 C269.5236296704475 932.9358298039641 269.7394939130627 932.7631384072986 269.7394939130627 932.4609284599175 L269.7394939130627 928.7048907207586 C269.7394939130627 928.4458536193272 269.5668025163973 928.229989376712 269.2645925690161 928.229989376712 L266.11297454448845 928.229989376712 C262.3569368053296 928.2731622258783 259.550701651332 930.0864219455484 258.42820783677 933.6697684553063 C257.8669608265569 935.396682396228 257.60792372512543 936.9940777092347 257.60792372512543 940.102522720548 C257.60792372512543 943.167794924511 257.82378796774066 944.808363044868 258.42820783677 946.5352769857897 C259.5938747674785 950.204969110248 262.400109818544 951.975056064384 266.24249358413164 951.975056064384 C269.3077657880946 951.975056064384 271.16419815106684 950.8093891336755 272.24351936414286 949.2983395383012 L272.2866922133092 949.2983395383012 L272.2866922133092 950.9820806718726 C272.2866922133092 951.241117773304 272.4593836099747 951.4569820159193 272.76159355735587 951.4569820159193 L277.07887840965986 951.4569820159193 C277.33791551109135 951.4569820159193 277.5537797537065 951.2842906192539 277.5537797537065 950.9820806718726 L277.5537797537065 919.9408019250413 C277.46742581115655 919.6385896488216 277.2515615685414 919.465900889791 276.94935953406474 919.465900889791 M214.7372821773023 958.6668420785884 L214.7372821773023 962.2933611898324 C214.7372821773023 962.9841267764942 214.90997357396776 963.1999909676433 215.6439119551133 963.1999909676433 L230.23633216201216 963.1999909676433 C230.92709774867404 963.1999909676433 231.14296193982318 963.0272995709779 231.14296193982318 962.2933611898324 L231.14296193982318 958.6668420785884 C231.14296193982318 957.9760764919265 230.9702705431577 957.7602123007773 230.23633216201216 957.7602123007773 L214.73727888347537 957.7602123007773 C214.9099709363329 957.7602227998507 214.7372821773023 957.9329115588813 214.7372821773023 958.6668420785884 M108.9206278122693 957.7602227998507 L108.0571708418085 957.7602227998507 C108.18668939252422 957.7170499506843 108.0571708418085 957.5443585572356 108.0571708418085 957.7602227998507 L108.0571708418085 913.9829438572417 C108.0571708418085 914.1988080998569 108.18668939252422 914.0261167064082 108.0571708418085 913.9829438572417 L205.6278085038793 913.9829438572417 C205.49828995316358 914.0261167064082 205.6278085038793 914.1988080998569 205.6278085038793 913.9829438572417 L205.6278085038793 956.8535837581514 C205.6278085038793 957.501176485997 205.49828995316358 957.673867869796 205.6278085038793 957.7602135359624 L108.9206278122693 957.7602135359624 Z M211.11076553642852 908.5000000000003 C210.9812390856747 908.672688759031 210.9812390856747 908.6295132754464 211.11076553642852 908.5000000000003 C210.9812390856747 908.6295132754464 210.9812390856747 908.6295132754464 211.11076553642852 908.5000000000003 C210.8949012938133 908.5431728491667 210.76538274309758 908.5000000000003 210.2041357586175 908.5000000000003 L102.5742187499997 908.5000000000003 C102.70373730071543 908.629518550716 102.5742187499997 908.7590371014318 102.5742187499997 909.4066297778113 L102.5742187499997 963.199998378754 C102.5742187499997 962.9409612773226 102.61739159916607 963.0273069820885 102.5742187499997 963.199998378754 L210.2041314354696 963.199998378754 C210.80855130449896 963.199998378754 210.8948970221315 963.1568255295876 211.11076121328063 963.199998378754 C211.06758836411427 962.9841341361388 211.11076121328063 962.8546155854231 211.11076121328063 962.293368600943 L211.11076121328063 908.5000000000003 Z "></path>
    </defs>
    <g style="mix-blend-mode:normal">
      <use xmlns:xlink="http://www.w3.org/1999/xlink" xlink:href="#s-Path_8-d1224" fill="#10162F" fill-opacity="1.0"></use>
    </g>
  </g>
</svg>
