<?xml version="1.0" encoding="UTF-8" standalone="no"?>
<!DOCTYPE svg PUBLIC "-//W3C//DTD SVG 1.1//EN" "http://www.w3.org/Graphics/SVG/1.1/DTD/svg11.dtd">
<!-- Created with Vectornator (http://vectornator.io/) -->
<svg height="100%" stroke-miterlimit="10" style="fill-rule:nonzero;clip-rule:evenodd;stroke-linecap:round;stroke-linejoin:round;" version="1.1" viewBox="0 0 32 32" width="100%" xml:space="preserve" xmlns="http://www.w3.org/2000/svg" xmlns:vectornator="http://vectornator.io" xmlns:xlink="http://www.w3.org/1999/xlink">
<defs/>
<g id="Untitled" vectornator:layerName="Untitled">
<path d="M9.68865 9.75198C8.97098 9.85048 8.37995 9.9701 7.91557 10.1108C7.45119 10.2515 6.95866 10.4274 6.43799 10.6385C5.91733 10.8496 5.22076 11.1944 4.34828 11.6728C3.47581 12.1513 2.72296 12.6368 2.08971 13.1293C1.45646 13.6218 1.13281 13.9103 1.11873 13.9947C1.10466 14.0792 1.11873 14.1284 1.16095 14.1425C1.18206 14.1495 1.20317 14.1566 1.22427 14.1636C1.22427 14.1495 1.22427 14.1354 1.22427 14.1214C1.22427 14.0932 1.45646 13.9173 1.92084 13.5937C2.38522 13.27 2.87071 12.9604 3.37731 12.6649C3.88391 12.3694 4.45383 12.0668 5.08707 11.7573C5.72032 11.4477 6.45207 11.1451 7.28232 10.8496C8.11258 10.5541 8.781 10.3571 9.2876 10.2586C9.7942 10.1601 10.2656 10.1038 10.7018 10.0897C11.1381 10.0756 11.5462 10.1038 11.9261 10.1741C12.3061 10.2445 12.5594 10.343 12.686 10.4697C12.8127 10.5963 12.876 10.723 12.876 10.8496C12.876 10.9763 12.8478 11.1029 12.7916 11.2296C12.7353 11.3562 12.5594 11.6025 12.2639 11.9683C11.9683 12.3342 11.3351 12.9041 10.3641 13.6781C9.39314 14.4521 8.68953 14.9798 8.2533 15.2612C7.81706 15.5427 7.46526 15.796 7.19789 16.0211C6.93052 16.2463 6.6139 16.4714 6.24802 16.6966C5.88215 16.9217 5.58663 17.1258 5.36148 17.3087C5.13632 17.4916 5.00967 17.5761 4.98153 17.562C4.96746 17.555 4.95339 17.5479 4.93931 17.5409C5.05893 17.3087 5.17854 17.0765 5.29815 16.8443C5.53738 16.3799 5.73439 15.9296 5.88918 15.4934C6.04398 15.0572 6.15655 14.7194 6.22691 14.4802C6.26209 14.3606 6.29727 14.241 6.33245 14.1214C6.29727 14.1284 6.26209 14.1354 6.22691 14.1425C6.15655 14.1566 6.08619 14.2058 6.01583 14.2902C5.94547 14.3747 5.6007 15.0501 4.98153 16.3166C4.36236 17.5831 3.708 18.5259 3.01847 19.1451C2.6737 19.4547 2.32894 19.7643 1.98417 20.0739C2.07564 20.0035 2.16711 19.9332 2.25858 19.8628C2.44151 19.7221 2.70888 19.5602 3.06069 19.3773C3.23659 19.2858 3.41249 19.1944 3.58839 19.1029C3.5321 19.2296 3.47581 19.3562 3.41953 19.4828C3.30695 19.7361 3.20844 20.0176 3.12401 20.3272C3.08179 20.482 3.03958 20.6368 2.99736 20.7916C3.10994 20.686 3.22252 20.5805 3.33509 20.4749C3.56025 20.2639 3.82058 19.8698 4.11609 19.2929C4.41161 18.7159 4.93228 18.1812 5.6781 17.6887C6.42392 17.1961 7.00792 16.781 7.43008 16.4433C7.85224 16.1055 8.26737 15.803 8.67546 15.5356C9.08355 15.2682 9.52682 14.9516 10.0053 14.5858C10.4837 14.2199 11.0185 13.7696 11.6095 13.2348C12.2005 12.7001 12.5734 12.3272 12.7282 12.1161C12.883 11.905 13.0097 11.6939 13.1082 11.4828C13.2067 11.2718 13.263 11.0888 13.277 10.934C13.2911 10.7792 13.277 10.6385 13.2348 10.5119C13.1926 10.3852 13.1152 10.2656 13.0026 10.153C12.8901 10.0405 12.7564 9.94899 12.6016 9.87863C12.4468 9.80827 12.102 9.74494 11.5673 9.68865C11.0325 9.63237 10.4063 9.65347 9.68865 9.75198ZM25.7942 11.8206C25.2876 12.0035 24.788 12.2216 24.2955 12.4749C23.803 12.7282 23.2471 13.073 22.628 13.5092C22.0088 13.9455 21.6429 14.241 21.5303 14.3958C21.4178 14.5506 21.3685 14.6772 21.3826 14.7757C21.3967 14.8742 21.46 14.9516 21.5726 15.0079C21.6851 15.0642 21.847 15.0923 22.058 15.0923C22.2691 15.0923 22.642 15.0431 23.1768 14.9446C23.7115 14.8461 24.2744 14.7968 24.8654 14.7968C25.4565 14.7968 25.8223 14.8179 25.9631 14.8602C26.1038 14.9024 26.2023 14.9587 26.2586 15.029C26.3149 15.0994 26.2938 15.2049 26.1953 15.3456C26.0967 15.4864 25.7309 15.7256 25.0976 16.0633C24.4644 16.4011 23.7608 16.7318 22.9868 17.0554C22.2128 17.3791 21.1645 17.8505 19.8417 18.4697C19.2042 18.768 17.8558 19.4236 17.8558 19.4236C17.8558 19.4236 16.3514 20.1722 15.5567 20.5805C14.0229 21.3685 12.7001 22.0862 11.5884 22.7335C10.4767 23.3808 9.43536 24.0493 8.46438 24.7388C7.97889 25.0836 7.4934 25.4283 7.00792 25.7731C7.26121 25.6324 7.51451 25.4916 7.76781 25.3509C8.27441 25.0695 8.87247 24.7669 9.56201 24.4433C10.2515 24.1196 11.3562 23.5427 12.876 22.7124C14.3958 21.8821 16.3096 20.8971 18.6174 19.7573C20.9252 18.6174 22.2551 17.9771 22.6069 17.8364C22.9587 17.6957 23.6412 17.3509 24.6544 16.8021C25.6675 16.2533 26.2445 15.9085 26.3852 15.7678C26.5259 15.6271 26.6104 15.5215 26.6385 15.4512C26.6667 15.3808 26.6737 15.2753 26.6596 15.1346C26.6456 14.9938 26.5682 14.8672 26.4274 14.7546C26.2867 14.642 26.1319 14.5646 25.9631 14.5224C25.7942 14.4802 25.4072 14.4591 24.8021 14.4591C24.197 14.4591 23.7397 14.4872 23.4301 14.5435C23.1205 14.5998 22.8109 14.6209 22.5013 14.6069C22.3465 14.5998 22.1917 14.5928 22.0369 14.5858C22.3254 14.3606 22.6139 14.1354 22.9024 13.9103C23.4793 13.46 23.8945 13.1715 24.1478 13.0449C24.4011 12.9182 24.6121 12.7916 24.781 12.6649C24.9499 12.5383 25.3228 12.3342 25.8997 12.0528C26.4767 11.7713 26.7652 11.6165 26.7652 11.5884C26.7652 11.5743 26.7652 11.5602 26.7652 11.5462C26.73 11.5462 26.6948 11.5462 26.6596 11.5462C26.5893 11.5462 26.3008 11.6376 25.7942 11.8206ZM13.3826 14.1847C13.2137 14.2551 13.0941 14.3254 13.0237 14.3958C12.9534 14.4661 12.7564 14.7828 12.4327 15.3456C12.1091 15.9085 11.8628 16.1829 11.6939 16.1689C11.5251 16.1548 11.4195 16.1618 11.3773 16.19C11.3351 16.2181 11.321 16.2674 11.3351 16.3377C11.3492 16.4081 11.4195 16.4433 11.5462 16.4433C11.6095 16.4433 11.6728 16.4433 11.7361 16.4433C11.7361 16.4644 11.7361 16.4855 11.7361 16.5066C11.7361 16.5488 11.5814 16.8514 11.2718 17.4142C10.9622 17.9771 10.6526 18.4134 10.343 18.723C10.0334 19.0325 9.76605 19.2647 9.5409 19.4195C9.31574 19.5743 9.06948 19.7784 8.80211 20.0317C8.53474 20.285 8.16183 20.5734 7.68338 20.8971C7.20493 21.2208 6.86016 21.4248 6.64908 21.5092C6.43799 21.5937 6.27617 21.6288 6.16359 21.6148C6.1073 21.6077 6.05101 21.6007 5.99472 21.5937C6.01583 21.467 6.03694 21.3404 6.05805 21.2137C6.10026 20.9604 6.19877 20.679 6.35356 20.3694C6.50836 20.0598 6.95163 19.5814 7.68338 18.934C8.41513 18.2867 9.01319 17.6816 9.47757 17.1187C9.94195 16.5558 10.1741 16.2392 10.1741 16.1689C10.1741 16.1337 10.1741 16.0985 10.1741 16.0633C10.1038 16.0633 10.0334 16.0633 9.96306 16.0633C9.82234 16.0633 9.57608 16.197 9.22427 16.4644C8.87247 16.7318 8.49956 17.0695 8.10554 17.4776C7.71152 17.8857 7.34565 18.336 7.00792 18.8285C6.67018 19.321 6.3606 19.6658 6.07916 19.8628C5.79771 20.0598 5.65699 20.1794 5.65699 20.2216C5.65699 20.2427 5.65699 20.2639 5.65699 20.285C5.67106 20.285 5.68514 20.285 5.69921 20.285C5.72735 20.285 5.81179 20.2498 5.95251 20.1794C6.02287 20.1442 6.09323 20.1091 6.16359 20.0739C6.1073 20.1935 6.05101 20.3131 5.99472 20.4327C5.88215 20.6719 5.80475 20.883 5.76253 21.066C5.72032 21.2489 5.70624 21.4037 5.72032 21.5303C5.73439 21.657 5.76957 21.7414 5.82586 21.7836C5.88215 21.8259 5.98769 21.847 6.14248 21.847C6.29727 21.847 6.47318 21.8047 6.67018 21.7203C6.86719 21.6359 7.25418 21.3967 7.83113 21.0026C8.40809 20.6086 8.78804 20.3201 8.97098 20.1372C9.15391 19.9543 9.39314 19.7573 9.68865 19.5462C9.98417 19.3351 10.1953 19.1592 10.3219 19.0185C10.3852 18.9481 10.4485 18.8777 10.5119 18.8074C10.5189 18.8285 10.5259 18.8496 10.533 18.8707C10.5471 18.9129 10.4837 19.0959 10.343 19.4195C10.2023 19.7432 10.1319 20.0035 10.1319 20.2005C10.1319 20.3975 10.146 20.5101 10.1741 20.5383C10.2023 20.5664 10.2726 20.5805 10.3852 20.5805C10.4978 20.5805 11.0677 20.095 12.095 19.124C12.6086 18.6385 13.1223 18.153 13.6359 17.6675C13.6359 17.7168 13.6359 17.7661 13.6359 17.8153C13.6359 17.9138 13.5022 18.2515 13.2348 18.8285C12.9675 19.4055 12.8267 19.7924 12.8127 19.9894C12.7986 20.1865 12.8478 20.292 12.9604 20.3061C13.073 20.3201 13.1504 20.3131 13.1926 20.285C13.2348 20.2568 13.4248 20.0598 13.7625 19.6939C14.1003 19.3281 14.3254 19.0607 14.438 18.8918C14.5506 18.723 14.7546 18.5119 15.0501 18.2586C15.3456 18.0053 15.5145 17.8786 15.5567 17.8786C15.5778 17.8786 15.5989 17.8786 15.6201 17.8786C15.6201 17.8927 15.6201 17.9068 15.6201 17.9208C15.6201 17.949 15.5075 18.2586 15.2823 18.8496C15.0572 19.4406 14.9657 19.7784 15.0079 19.8628C15.0501 19.9472 15.0994 19.9894 15.1557 19.9894C15.212 19.9894 15.3386 19.8206 15.5356 19.4828C15.7326 19.1451 15.8593 18.8848 15.9156 18.7018C15.9719 18.5189 16.0774 18.3993 16.2322 18.343C16.387 18.2867 16.584 18.1812 16.8232 18.0264C17.0624 17.8716 17.3157 17.6675 17.5831 17.4142C17.8505 17.1609 18.1108 16.9499 18.3641 16.781C18.6174 16.6121 18.7441 16.5136 18.7441 16.4855C18.7441 16.4714 18.7441 16.4573 18.7441 16.4433C18.3993 16.6121 18.0545 16.781 17.7098 16.9499C17.0202 17.2876 16.5981 17.5128 16.4433 17.6253C16.2885 17.7379 16.1689 17.7872 16.0844 17.7731C16 17.759 15.9367 17.7098 15.8945 17.6253C15.8522 17.5409 15.7467 17.5198 15.5778 17.562C15.409 17.6042 15.1979 17.7379 14.9446 17.9631C14.6913 18.1882 14.4732 18.4274 14.2902 18.6807C14.1073 18.934 13.8751 19.2014 13.5937 19.4828C13.4529 19.6236 13.3122 19.7643 13.1715 19.905C13.1856 19.8276 13.1996 19.7502 13.2137 19.6728C13.2419 19.518 13.3685 19.1662 13.5937 18.6174C13.8188 18.0686 13.9314 17.7379 13.9314 17.6253C13.9314 17.5128 13.9173 17.4424 13.8892 17.4142C13.861 17.3861 13.8047 17.3791 13.7203 17.3931C13.6359 17.4072 13.5374 17.4494 13.4248 17.5198C13.3122 17.5901 12.8338 18.0475 11.9894 18.8918C11.1451 19.7361 10.6667 20.1865 10.5541 20.2427C10.4978 20.2709 10.4415 20.299 10.3852 20.3272C10.3993 20.2357 10.4134 20.1442 10.4274 20.0528C10.4556 19.8698 10.5752 19.518 10.7863 18.9974C10.9974 18.4767 11.3069 17.9982 11.715 17.562C12.1231 17.1258 12.5383 16.6121 12.9604 16.0211C13.3826 15.4301 13.65 15.0009 13.7625 14.7335C13.8751 14.4661 13.9244 14.2973 13.9103 14.2269C13.8962 14.1566 13.847 14.1143 13.7625 14.1003C13.6781 14.0862 13.5515 14.1143 13.3826 14.1847ZM13.7203 14.248C13.7344 14.248 13.7485 14.248 13.7625 14.248C13.7555 14.2902 13.7485 14.3325 13.7414 14.3747C13.7274 14.4591 13.6429 14.635 13.4881 14.9024C13.3333 15.1697 13.2067 15.3527 13.1082 15.4512C13.0097 15.5497 12.8971 15.7045 12.7704 15.9156C12.6438 16.1266 12.5242 16.2322 12.4116 16.2322C12.3553 16.2322 12.299 16.2322 12.2427 16.2322C12.3975 15.9578 12.5523 15.6834 12.7071 15.409C13.0167 14.8602 13.2559 14.5295 13.4248 14.4169C13.5937 14.3043 13.6922 14.248 13.7203 14.248ZM10.7018 14.8602C10.5471 14.9868 10.4485 15.0994 10.4063 15.1979C10.3852 15.2471 10.3641 15.2964 10.343 15.3456C10.4204 15.2823 10.4978 15.219 10.5752 15.1557C10.73 15.029 10.8285 14.9164 10.8707 14.8179C10.8918 14.7687 10.9129 14.7194 10.934 14.6702C10.8566 14.7335 10.7792 14.7968 10.7018 14.8602ZM9.94195 16.19C9.96306 16.19 9.98417 16.19 10.0053 16.19C9.9912 16.2252 9.97713 16.2603 9.96306 16.2955C9.93492 16.3659 9.73087 16.6121 9.35092 17.0343C8.97098 17.4565 8.49956 17.9208 7.93668 18.4274C7.65523 18.6807 7.37379 18.934 7.09235 19.1873C7.23307 18.9903 7.37379 18.7933 7.51451 18.5963C7.79595 18.2023 8.14072 17.7942 8.54881 17.372C8.9569 16.9499 9.28056 16.6473 9.51979 16.4644C9.75901 16.2814 9.89974 16.19 9.94195 16.19ZM12.4327 16.3588C12.4468 16.387 12.3975 16.4785 12.285 16.6332C12.1724 16.788 12.0246 16.9499 11.8417 17.1187C11.7502 17.2032 11.6588 17.2876 11.5673 17.372C11.6517 17.2172 11.7361 17.0624 11.8206 16.9077C11.9894 16.5981 12.1302 16.4222 12.2427 16.3799C12.3553 16.3377 12.4186 16.3307 12.4327 16.3588Z" fill="#000000" fill-rule="nonzero" opacity="1" stroke="none" vectornator:layerName="Curve 2"/>
</g>
</svg>
